<?xml version="1.0" encoding="utf-8"?>
<!-- Generator: Adobe Illustrator 25.2.0, SVG Export Plug-In . SVG Version: 6.00 Build 0)  -->
<!DOCTYPE svg PUBLIC "-//W3C//DTD SVG 1.1//EN" "http://www.w3.org/Graphics/SVG/1.1/DTD/svg11.dtd" [
	<!ENTITY ns_extend "http://ns.adobe.com/Extensibility/1.0/">
	<!ENTITY ns_ai "http://ns.adobe.com/AdobeIllustrator/10.0/">
	<!ENTITY ns_graphs "http://ns.adobe.com/Graphs/1.0/">
	<!ENTITY ns_vars "http://ns.adobe.com/Variables/1.0/">
	<!ENTITY ns_imrep "http://ns.adobe.com/ImageReplacement/1.0/">
	<!ENTITY ns_sfw "http://ns.adobe.com/SaveForWeb/1.0/">
	<!ENTITY ns_custom "http://ns.adobe.com/GenericCustomNamespace/1.0/">
	<!ENTITY ns_adobe_xpath "http://ns.adobe.com/XPath/1.0/">
]>
<svg version="1.1" xmlns:x="&ns_extend;" xmlns:i="&ns_ai;" xmlns:graph="&ns_graphs;"
	 xmlns="http://www.w3.org/2000/svg" xmlns:xlink="http://www.w3.org/1999/xlink" x="0px" y="0px" width="1000px" height="475px"
	 viewBox="0 0 1000 475" enable-background="new 0 0 1000 475" xml:space="preserve">
<metadata>
	<sfw  xmlns="&ns_sfw;">
		<slices></slices>
		<sliceSourceBounds  bottomLeftOrigin="true" height="4750" width="5373" x="-2000" y="-550"></sliceSourceBounds>
	</sfw>
</metadata>
<g id="FILL-BACKGROUND">
	<rect y="0" fill="#FFFFFF" width="1000" height="475"/>
</g>
<g id="N-TEXT">
</g>
<g id="N-DIMENSIONS">
</g>
<g id="_x32_D_x24_AG-GUIDES">
</g>
<g id="_x32_D_x24_AG-DIAGRAM">
	<g id="POLYLINE_342_">
		<g>
			<g>
				
					<line fill="none" stroke="#E74C3C" stroke-width="3" stroke-linecap="round" stroke-linejoin="round" x1="50.53" y1="426.35" x2="52.53" y2="426.35"/>
				
					<line fill="none" stroke="#E74C3C" stroke-width="3" stroke-linecap="round" stroke-linejoin="round" stroke-dasharray="3.9864,6.9761" x1="59.506" y1="426.35" x2="943.982" y2="426.35"/>
				
					<line fill="none" stroke="#E74C3C" stroke-width="3" stroke-linecap="round" stroke-linejoin="round" x1="947.47" y1="426.35" x2="949.47" y2="426.35"/>
			</g>
		</g>
	</g>
</g>
<g id="_x32_D_x24_AG-DETAILS-DIAGRAM">
</g>
<g id="_x32_D_x24_AG-SPORTS">
	<g id="POLYLINE_276_">
		
			<path fill="none" stroke="#E74C3C" stroke-width="2.5" stroke-linecap="round" stroke-linejoin="round" stroke-miterlimit="10" d="
			M157.214,235.029c-0.685,3.09,0.397,5.272,2.775,7.222c1.39,1.148,2.974,2.103,4.551,2.972c2.715,1.48,5.707,2.792,8.568,3.973
			c2.461,1.01,5.59,2.195,8.092,3.121c3.146,1.146,6.468,2.272,9.741,2.971c7.908,1.719,16.424,1.121,24.444,1.866
			c3.484,0.305,7.025,0.977,10.423,1.799c0.803,0.212,6.995,1.711,7.768,1.976c0.345,0.114,0.716,0.23,1.026,0.425
			c0.061,0.041,0.123,0.087,0.17,0.145l0.004,0.006l0.004,0.006l0.004,0.006l0.004,0.006l0.004,0.006l0.004,0.006l0.003,0.006
			l0.003,0.006l0.003,0.006l0.003,0.006l0.003,0.006l0.003,0.006l0.002,0.006l0.002,0.006l0.002,0.006l0.002,0.006l0.002,0.006
			l0.002,0.006l0.001,0.004l0.001,0.004l0.001,0.004l0.001,0.004l0.001,0.004l0.001,0.004l0,0.004l0,0.004l0,0.004l0,0.004l0,0.004
			l0,0.004l0,0.004l0,0.004l0,0.004l0,0.004l0,0.004l0,0.004l0,0.004l0,0.004l-0.001,0.004l-0.001,0.004l-0.001,0.004l-0.001,0.004
			c-0.015,0.07-0.06,0.129-0.108,0.18c-0.329,0.321-1.108,0.695-1.514,0.945c-3.064,1.849-5.815,4.261-8.025,7.076
			c-3.467,4.521-5.905,10.804-8.771,15.712c-2.346,4.115-5.147,8.313-7.862,12.201c-1.455,2.111-5.666,7.738-6.853,9.897
			c-0.381,0.704-0.769,1.438-0.901,2.236c-0.061,0.39-0.04,0.793,0.062,1.175c0.22,0.818,0.72,1.527,1.231,2.189
			c1.164,1.461,2.545,2.764,3.974,3.961c0.912,0.745,1.865,1.488,2.898,2.057c0.336,0.178,0.692,0.341,1.071,0.395
			c0.213,0.03,0.434,0.019,0.641-0.04c0.258-0.072,0.494-0.207,0.711-0.362c0.311-0.223,0.596-0.497,0.865-0.769
			c1.018-1.055,2.403-2.813,3.407-3.884c2.957-3.279,8.475-7.135,11.963-9.906c7.372-5.719,14.129-13.667,21.019-19.94
			c3.087-2.872,9.682-8.091,12.979-10.85c0.753-0.663,1.594-1.369,2.296-2.085c1.397-1.386,2.642-2.981,3.363-4.828
			c0.679-1.723,0.906-3.602,0.858-5.446c-0.062-2.15-0.501-4.293-1.266-6.302c-0.666-1.761-1.63-3.408-2.788-4.891
			c-0.9-1.161-1.938-2.264-2.993-3.287c-0.886-0.936-10.017-8.91-11.198-9.99c-2.737-2.418-5.658-4.803-8.687-6.84
			c-6.121-4.144-12.869-7.496-19.744-10.193c-5.569-2.159-11.435-4.017-17.267-5.311c-3.5-0.746-7.102-1.391-10.692-1.331
			c-1.923,0.037-3.842,0.379-5.669,0.978c-1.605,0.513-3.229,1.233-4.765,1.927c-2.319,1.064-4.881,2.337-7.143,3.521
			c-4.664,2.486-9.427,5.129-13.65,8.319c-1.467,1.14-2.909,2.393-3.913,3.974C157.805,233.05,157.425,234.024,157.214,235.029z"/>
	</g>
	<g id="POLYLINE_277_">
		
			<path fill="none" stroke="#E74C3C" stroke-width="2.5" stroke-linecap="round" stroke-linejoin="round" stroke-miterlimit="10" d="
			M201.767,307.57l-0.667-0.064c-0.509-0.044-1.055-0.012-1.494,0.274c-0.446,0.289-0.775,0.726-1.081,1.152
			c-0.629,0.914-1.375,2.177-2.03,3.063c-0.487,0.671-1.04,1.312-1.62,1.903c-2.703,2.764-6.245,5.062-8.691,8.076
			c-0.579,0.723-1.102,1.502-1.517,2.331c-0.636,1.27-1.035,2.712-0.85,4.139c0.181,1.428,0.962,2.747,2.059,3.667
			c0.777,0.654,1.72,1.111,2.718,1.305c1.234,0.238,2.511,0.09,3.74-0.11c2.42-0.391,5.024-1.198,7.491-0.867
			c1.374,0.194,2.691,0.768,3.785,1.619c1.27,0.988,2.273,2.365,2.67,3.936c0.464,1.835,0.168,3.761-0.181,5.591
			c-0.653,3.177-1.525,6.813-1.574,10.043c-0.041,1.805,0.166,3.638,0.798,5.337c0.964,2.704,2.827,5.194,3.976,7.814
			c0.547,1.292,1.018,2.713,0.796,4.131c-0.083,0.5-0.275,0.984-0.574,1.394c-0.708,0.959-1.818,1.533-2.93,1.895
			c-1.629,0.514-3.408,0.595-5.064,0.159c-2.621-0.697-4.81-2.439-6.865-4.138c-3.713-3.163-7.278-6.653-9.981-10.735
			c-0.768-1.181-1.447-2.441-1.935-3.765c-0.676-1.755-1.097-4.054-1.503-5.895c-0.286-1.27-0.638-2.553-1.147-3.752
			c-0.929-2.202-2.287-4.305-3.608-6.294c-0.849-1.304-2.266-3.293-3.013-4.626c-0.383-0.673-0.739-1.378-0.965-2.121
			c-0.219-0.714-0.3-1.481-0.151-2.217c0.269-1.301,1.1-2.402,1.959-3.382c1.242-1.384,2.708-2.602,4.154-3.766
			c1.565-1.237,3.2-2.462,5.01-3.319c0.746-0.348,1.535-0.628,2.35-0.755c0.858-0.137,1.739-0.11,2.596,0.014"/>
	</g>
	<g id="POLYLINE_278_">
		
			<path fill="none" stroke="#E74C3C" stroke-width="2.5" stroke-linecap="round" stroke-linejoin="round" stroke-miterlimit="10" d="
			M204.098,334.469c1.329-2.475,2.781-5.266,4.454-7.508c0.951-1.299,2.235-2.871,3.116-4.209c0.287-0.441,0.566-0.905,0.78-1.387
			c0.161-0.36,0.281-0.742,0.332-1.133c0.056-0.416,0.034-0.841-0.019-1.256l-0.119-0.855"/>
	</g>
	<g id="POLYLINE_279_">
		
			<path fill="none" stroke="#E74C3C" stroke-width="2.5" stroke-linecap="round" stroke-linejoin="round" stroke-miterlimit="10" d="
			M158.398,240.665c-0.886,1.697-2.334,4.346-3.084,6.021c-0.646,1.411-1.258,2.98-1.759,4.45
			c-3.095,9.405-6.078,24.226-8.743,33.822c-0.771,2.759-1.622,5.603-2.724,8.247c-0.774,1.847-1.695,3.665-2.88,5.284
			c-1.179,1.637-2.687,3.021-4.317,4.199c-1.738,1.283-4.71,3.021-6.533,4.215c-1.622,1.056-3.239,2.227-4.751,3.434
			c-4.308,3.446-8.218,7.458-11.325,12.028c-2.764,3.995-5.665,9.601-8.189,13.768c-2.39,3.914-5.044,7.782-7.934,11.345
			c-0.521,0.655-1.675,1.896-2.098,2.621c-0.272,0.445-0.464,0.952-0.464,1.479c-0.002,0.546,0.164,1.079,0.373,1.579
			c0.354,0.831,0.852,1.608,1.361,2.351c1.225,1.722,2.582,3.477,3.97,5.07c0.74,0.814,1.518,1.638,2.47,2.205
			c0.418,0.242,0.896,0.431,1.387,0.386c0.36-0.031,0.698-0.182,0.999-0.376c0.526-0.342,0.988-0.816,1.426-1.262
			c1.297-1.398,2.804-2.875,4.236-4.124c5.104-4.494,13.5-10.979,18.414-15.641c2.974-2.772,6.017-5.905,8.741-8.927
			c0.978-1.095,3.589-4.104,4.629-5.114c1.419-1.425,3.035-2.682,4.836-3.587c3.063-1.571,6.97-2.558,10.1-3.977
			c0.768-0.356,1.523-0.772,2.192-1.295c0.656-0.509,1.225-1.135,1.664-1.84c0.519-0.822,0.867-1.744,1.169-2.664
			c0.695-2.139,1.298-4.677,2.657-6.499c0.796-1.078,1.828-1.969,2.875-2.795c0.86-0.675,2.131-1.609,2.901-2.369
			c0.637-0.616,1.219-1.318,1.756-2.023c3.769-5.159,8.324-10.279,11.548-15.807c2.734-4.563,5.144-9.821,7.309-14.693
			c1.962-4.451,4.095-9.47,5.761-14.029"/>
	</g>
	<g id="POLYLINE_280_">
		
			<path fill="none" stroke="#E74C3C" stroke-width="2.5" stroke-linecap="round" stroke-linejoin="round" stroke-miterlimit="10" d="
			M94.469,349.507c-0.381-0.137-0.774-0.326-1.185-0.336c-0.24-0.008-0.478,0.058-0.69,0.17c-0.678,0.374-1.202,1.007-1.709,1.579
			c-1.068,1.28-2.28,2.783-3.423,3.991c-1.649,1.807-5.292,5.323-7.07,7.078c-0.671,0.68-1.323,1.407-1.752,2.267
			c-0.447,0.878-0.657,1.86-0.751,2.835c-0.213,2.48,0.067,5,0.665,7.411c0.447,1.689,1.054,3.4,2.167,4.772
			c0.625,0.77,1.485,1.335,2.435,1.616c1.852,0.553,3.921,0.263,5.825,0.241c1.888-0.013,3.946,0.151,5.49,1.349
			c1.052,0.837,1.771,2.16,1.771,3.517c-0.003,0.552-0.15,1.108-0.45,1.574c-0.433,0.668-1.1,1.145-1.769,1.555
			c-2.089,1.249-4.625,2.038-6.532,3.585c-0.803,0.656-1.476,1.469-1.991,2.368c-0.806,1.401-1.253,2.984-1.567,4.561
			c-0.778,3.904-0.804,8.53-1.877,12.372c-0.264,0.882-0.599,1.771-1.17,2.504c-0.378,0.484-0.866,0.883-1.421,1.146
			c-0.826,0.394-1.763,0.491-2.668,0.433c-1.054-0.068-2.103-0.351-3.028-0.866c-0.651-0.362-1.24-0.844-1.712-1.421
			c-0.495-0.605-0.865-1.308-1.157-2.03c-0.448-1.115-0.727-2.31-0.944-3.49c-0.391-2.184-0.618-4.645-0.826-6.858
			c-0.237-2.861-0.397-5.868-0.334-8.735c0.033-2.582,0.496-6.99,0.532-9.574c0.157-4.841-1.202-11.36-1.923-16.172
			c-0.205-1.503-0.378-3.054-0.272-4.571c0.069-0.964,0.259-1.936,0.68-2.811c0.496-1.045,1.335-1.897,2.289-2.537
			c1.474-0.977,3.232-1.54,5.002-1.574c1.929-0.055,4.247,0.668,6.124,1.085c0.242,0.063,3.549,0.724,3.897,0.795"/>
	</g>
	<g id="POLYLINE_281_">
		
			<path fill="none" stroke="#E74C3C" stroke-width="2.5" stroke-linecap="round" stroke-linejoin="round" stroke-miterlimit="10" d="
			M92.185,381.425l3.281-4.358c1.84-2.437,4.702-5.195,6.747-7.477c0.73-0.832,1.457-1.704,2.031-2.652
			c0.325-0.538,0.594-1.12,0.728-1.736c0.136-0.603,0.143-1.23,0.1-1.843l-0.103-1.22"/>
	</g>
	<g id="POLYLINE_282_">
		
			<path fill="none" stroke="#E74C3C" stroke-width="2.5" stroke-linecap="round" stroke-linejoin="round" stroke-miterlimit="10" d="
			M207.209,215.508c0.293-0.837,0.52-1.739,0.712-2.606c0.17-0.831,0.586-2.636,0.717-3.445c0.094-0.585,0.167-1.187,0.11-1.78
			c-0.035-0.351-0.125-0.706-0.326-1c-0.201-0.298-0.501-0.516-0.818-0.679c-0.584-0.296-1.245-0.463-1.877-0.627
			c-7.721-1.791-15.662-4.462-23.132-7.119c-2.198-0.806-4.69-1.751-6.834-2.682c-1.196-0.527-2.427-1.102-3.538-1.791
			c-1.124-0.689-2.149-1.551-2.977-2.579c-1.224-1.503-2.107-3.267-2.797-5.07c-1.144-3.008-1.774-6.243-2.318-9.407l-2.385-15.861
			c-0.196-1.516-3.784-20.737-4.162-22.827"/>
	</g>
	<g id="POLYLINE_283_">
		
			<path fill="none" stroke="#E74C3C" stroke-width="2.5" stroke-linecap="round" stroke-linejoin="round" stroke-miterlimit="10" d="
			M168.324,189.927l-0.807,1.099c-0.439,0.585-0.921,1.148-1.469,1.634c-0.647,0.6-1.971,1.438-2.71,1.958
			c-1.37,0.941-2.688,2.002-3.79,3.251c-1.665,1.889-2.947,4.103-4.043,6.361c-1.477,3.083-2.612,6.376-3.415,9.699
			c-0.717,3.025-1.185,6.144-1.132,9.258c0.053,2.931,0.585,5.867,1.589,8.623c0.633,1.696,1.404,3.379,2.452,4.862
			c0.733,1.016,1.664,1.89,2.596,2.721"/>
	</g>
	<g id="POLYLINE_284_">
		
			<path fill="none" stroke="#E74C3C" stroke-width="2.5" stroke-linecap="round" stroke-linejoin="round" stroke-miterlimit="10" d="
			M214.172,109.59c1.579-0.174,3.198-0.272,4.771-0.006c1.307,0.21,2.564,0.681,3.726,1.308c6.108,3.333,12.32,11.214,13.374,18.167
			c0.16,0.955,0.33,2.579,0.594,3.489c0.175,0.647,0.458,1.274,0.903,1.78c0.487,0.566,1.108,1.015,1.714,1.445
			c1.131,0.776,2.321,1.627,3.298,2.589c2,1.938,3.727,4.167,5.254,6.491c0.848,1.266,1.696,2.87,2.411,4.224
			c0.157,0.277,0.316,0.578,0.521,0.822c0.044,0.05,0.092,0.1,0.149,0.134l0.005,0.003l0.005,0.003l0.005,0.003l0.005,0.002
			l0.005,0.002l0.005,0.002l0.005,0.002l0.005,0.002l0.005,0.002l0.005,0.002l0.005,0.001l0.005,0.001l0.005,0.001l0.005,0.001
			l0.005,0.001l0.005,0.001l0.004,0.001l0.004,0l0.004,0l0.004,0l0.004,0l0.004,0l0.004,0l0.004,0l0.003,0l0.003-0.001l0.003-0.001
			l0.003-0.001l0.003-0.001l0.003-0.001l0.003-0.001l0.003-0.001l0.003-0.001l0.003-0.001l0.003-0.001l0.003-0.001l0.003-0.002
			l0.003-0.002l0.003-0.002l0.003-0.002l0.003-0.002l0.003-0.002l0.003-0.002l0.003-0.002l0.003-0.002l0.003-0.002l0.003-0.002
			l0.003-0.003l0.003-0.003l0.003-0.003l0.003-0.003c0.12-0.126,0.175-0.367,0.222-0.534c0.149-0.612,0.311-1.507,0.479-2.112
			c0.224-0.845,0.529-1.751,0.819-2.577c1.494-4.043,3.288-8.644,4.119-12.855c0.477-2.333,0.831-4.732,0.741-7.118
			c-0.088-2.872-1.195-6.269-1.878-9.061c-0.922-3.838-1.723-7.943-0.599-11.823c0.575-2.056,1.571-3.984,2.707-5.783
			c0.572-0.881,1.133-1.821,1.92-2.529c0.304-0.268,0.654-0.494,1.045-0.61c0.354-0.107,0.733-0.114,1.096-0.046
			c1.086,0.219,2.045,0.874,2.915,1.532c2.047,1.618,3.794,3.608,5.351,5.692c2.107,2.878,3.936,6.336,3.527,10.01
			c-0.277,3.091-2.048,6.405-3.223,9.243c-0.488,1.183-0.953,2.415-1.209,3.671c-0.258,1.237-0.317,2.526-0.311,3.788l0.083,5.149
			c0.006,7.355-0.427,14.967-1.329,22.265c-0.624,4.785-1.383,9.676-2.827,14.288c-0.468,1.437-1.007,2.879-1.795,4.175
			c-0.577,0.942-1.345,1.815-2.364,2.285c-0.733,0.345-1.554,0.465-2.359,0.456c-1.141-0.015-2.273-0.252-3.363-0.575
			c-2.594-0.79-5.034-2.081-7.248-3.635c-3.352-2.338-6.921-6.008-9.929-8.803c-0.889-0.833-5.871-5.279-6.885-6.19
			c-1.436-1.33-2.908-2.727-4.14-4.249c-1.159-1.407-2.176-3.114-3.107-4.685"/>
	</g>
	<g id="POLYLINE_285_">
		
			<path fill="none" stroke="#E74C3C" stroke-width="2.5" stroke-linecap="round" stroke-linejoin="round" stroke-miterlimit="10" d="
			M169.925,104.548c0.577-0.084,1.14-0.269,1.677-0.492c0.433-0.175,0.908-0.391,1.37-0.477c0.299-0.059,0.607-0.069,0.91-0.038
			c1.144,0.125,2.209,0.659,3.14,1.315c1.817,1.275,3.029,3.222,3.849,5.253c1.049,2.598,1.613,5.413,2.069,8.169
			c0.754,4.794,1.025,9.745,0.796,14.593c-0.145,2.645-0.372,5.346-1.127,7.896c-0.536,1.753-1.384,3.574-2.995,4.571
			c-1.089,0.666-2.402,0.846-3.659,0.821c-2.047-0.052-4.065-0.579-6.009-1.189c-2.714-0.901-5.459-1.918-7.987-3.262
			c-1.55-0.849-3.072-1.874-4.13-3.315c-0.579-0.788-0.96-1.707-1.269-2.629c-0.141-0.398-0.406-1.323-0.578-1.694
			c-0.054-0.121-0.114-0.242-0.193-0.349c-0.064-0.088-0.146-0.166-0.245-0.211c-0.198-0.09-0.424-0.051-0.63-0.011
			c-1.052,0.236-2.214,0.642-3.242,0.979c-6.857,2.374-14.925,5.424-21.962,7.037c-1.848,0.442-6.59,1.364-8.315,1.959
			c-0.259,0.097-0.526,0.2-0.744,0.375c-0.26,0.203-0.366,0.531-0.423,0.845c-0.068,0.368-0.089,0.771-0.11,1.145
			c-0.172,5.29-0.869,10.922-1.531,16.175c-0.469,3.668-1.161,8.013-1.898,11.644c-0.16,0.89-0.295,1.83-0.346,2.733
			c-0.096,1.599,0.03,3.241,0.193,4.832c0.342,3.185,0.944,6.532,1.579,9.674c0.61,3.149,1.862,7.388,1.813,10.58
			c-0.022,3.703-1.113,7.358-2.697,10.682c-0.885,1.815-1.968,3.568-3.286,5.102c-0.798,0.919-1.69,1.783-2.734,2.419
			c-0.725,0.436-1.554,0.766-2.412,0.741c-0.626-0.017-1.231-0.242-1.76-0.567c-1.352-0.851-2.324-2.178-3.207-3.482
			c-1.072-1.633-2.065-3.362-2.643-5.237c-0.405-1.306-0.59-2.69-0.489-4.056c0.128-1.717,0.669-3.386,1.311-4.975
			c0.815-2.031,1.955-4.034,3.003-5.954c0.155-0.302,0.292-0.621,0.376-0.951c0.215-0.875,0.19-1.802,0.186-2.697
			c-0.093-3.484-0.518-7.021-1.052-10.462c-0.438-2.851-1.422-7.171-2.028-10.017c-0.954-4.385-1.468-9.027-1.753-13.505
			c-0.133-2.991-0.739-14.262-0.811-17.027c-0.011-0.728-0.003-1.504,0.05-2.23c0.078-1.06,0.252-2.129,0.636-3.123
			c0.265-0.693,0.64-1.345,1.106-1.923c0.715-0.891,1.608-1.634,2.532-2.299c2.15-1.522,5.002-2.981,7.18-4.466
			c2.429-1.645,5.849-4.019,8.322-5.489c4.132-2.471,8.491-4.725,13.06-6.269c1.636-0.55,3.39-0.986,5.08-1.341
			c1.495-0.319,4.401-0.833,5.83-1.246c1.086-0.297,2.148-0.726,3.073-1.376c1.397-0.967,2.746-2.499,4.024-3.615
			c1.229-1.096,2.58-2.09,4.084-2.773c2.574-1.218,5.51-1.181,8.293-1.015C165.184,104.426,167.973,104.806,169.925,104.548z"/>
	</g>
	<g id="POLYLINE_286_">
		
			<path fill="none" stroke="#E74C3C" stroke-width="2.5" stroke-linecap="round" stroke-linejoin="round" stroke-miterlimit="10" d="
			M193.444,85.227c-0.663,0.238-1.35,0.498-2.051,0.587c-0.536,0.072-1.089,0.039-1.609-0.11c-0.877-0.255-1.66-0.77-2.353-1.354
			c-1.055-0.907-1.935-2.039-2.502-3.313c-0.655-1.472-0.804-3.228-0.172-4.733c0.286-0.666,0.781-1.293,1.484-1.537
			c0.482-0.168,1.008-0.157,1.507-0.08c0.864,0.139,1.696,0.468,2.498,0.81l1.515,0.672c0.582,0.248,1.187,0.486,1.814,0.585
			c0.457,0.073,0.926,0.071,1.383,0.001c0.537-0.086,1.102-0.272,1.464-0.7c0.204-0.239,0.3-0.55,0.328-0.859
			c0.049-0.564-0.054-1.135-0.16-1.688l-0.455-2.115c-0.12-0.619-0.208-1.258-0.213-1.889c-0.013-0.797,0.081-1.608,0.207-2.394
			l0.311-1.818c0.225-1.218,0.157-2.363,0.312-3.52c0.06-0.389,0.16-0.779,0.346-1.128c0.342-0.663,1.008-1.073,1.68-1.348
			c1.505-0.597,3.159-0.773,4.756-0.953c2.193-0.177,4.608-0.509,6.803-0.363c0.974,0.074,1.971,0.254,2.829,0.743
			c0.622,0.354,1.138,0.87,1.569,1.436c0.726,0.908,2.232,3.866,2.836,4.915c0.462,0.852,0.92,1.736,1.203,2.665
			c0.162,0.527,0.257,1.079,0.252,1.631c0.003,1.104-0.317,2.268-0.05,3.36c0.195,0.794,0.697,1.47,1.213,2.087
			c0.526,0.629,1.333,1.404,1.865,2.028c0.125,0.149,0.249,0.308,0.349,0.476c0.146,0.238,0.247,0.523,0.184,0.803
			c-0.038,0.184-0.135,0.35-0.243,0.502c-0.364,0.513-0.885,0.963-1.053,1.589c-0.092,0.347,0.005,0.71,0.143,1.031
			c0.285,0.664,0.767,1.248,1.041,1.917c0.217,0.52,0.138,1.094,0.121,1.641c-0.021,0.65,0.193,1.342,0.334,1.97
			c0.123,0.548,0.227,1.127,0.083,1.681c-0.125,0.511-0.401,1.026-0.587,1.517c-0.186,0.471-0.304,0.973-0.392,1.471l-0.341,2.153
			c-0.172,0.965-0.401,1.946-0.89,2.805c-0.7,1.241-1.9,2.142-3.221,2.64c-1.145,0.438-2.383,0.591-3.604,0.572
			c-1.701-0.029-3.394-0.366-5.029-0.818c-3.632-1.024-7.149-2.619-10.15-4.925"/>
	</g>
	<g id="POLYLINE_287_">
		
			<path fill="none" stroke="#E74C3C" stroke-width="2.5" stroke-linecap="round" stroke-linejoin="round" stroke-miterlimit="10" d="
			M169.925,104.548c0.249-0.638,0.518-1.308,0.977-1.828c0.351-0.411,0.785-0.747,1.236-1.039c0.625-0.402,1.303-0.726,1.999-0.985
			c1.316-0.488,2.726-0.752,4.131-0.702c2.508,0.089,5.018,1.083,6.792,2.878c1.154,1.169,1.955,2.64,2.604,4.137
			c0.765,1.684,2.574,7.249,3.225,9.082c1.829,5.149,3.822,10.398,6.794,15.007c1.444,2.201,3.139,4.306,5.282,5.863
			c1.341,0.971,2.891,1.699,4.543,1.912c1.74,0.229,3.545-0.021,5.159-0.709c0.905-0.392,1.77-0.933,2.416-1.688
			c1.162-1.335,1.342-3.199,1.253-4.9c-0.121-2.247-0.643-4.468-1.299-6.614c-1.22-4.146-3.637-8.697-5.547-12.59
			c-0.422-0.905-0.88-1.841-1.084-2.824c-0.14-0.669-0.13-1.365-0.059-2.042c0.109-1.071,0.378-2.254,0.614-3.308
			c0.128-0.56,0.276-1.18,0.458-1.723c0.369-1.127,0.923-2.194,1.537-3.206"/>
	</g>
	<g id="POLYLINE_288_">
		
			<path fill="none" stroke="#E74C3C" stroke-width="2.5" stroke-linecap="round" stroke-linejoin="round" stroke-miterlimit="10" d="
			M208.174,206.388c0.882-1.162,1.892-2.473,2.625-3.723c0.682-1.139,1.257-2.366,1.752-3.597
			c3.954-10.086,5.357-22.017,7.356-32.631l3.696-17.345c0.786-4.074,1.51-8.281,1.493-12.44c-0.018-2.987-0.412-6.003-1.341-8.848
			c-0.48-1.49-1.152-2.936-1.915-4.301c-0.382-0.675-1.702-2.966-2.033-3.597c-0.405-0.732-2.055-4.06-2.467-4.875
			c-0.874-1.706-1.819-3.502-2.91-5.075c-1.499-2.194-3.47-4.058-5.46-5.802"/>
	</g>
	<g id="POLYLINE_289_">
		
			<path fill="none" stroke="#E74C3C" stroke-width="2.5" stroke-linecap="round" stroke-linejoin="round" stroke-miterlimit="10" d="
			M186.358,83.276c0.083,1.227-0.116,2.459-0.434,3.641c-0.209,0.768-0.436,1.554-0.789,2.27c-0.149,0.29-0.319,0.581-0.568,0.796
			c-0.125,0.106-0.279,0.187-0.445,0.194c-0.253,0.011-0.486-0.121-0.681-0.269c-0.619-0.499-1.053-1.223-1.432-1.912
			c-1.194-2.185-1.48-4.843-2.675-7.028l-1.057-1.96c-0.482-0.923-0.91-1.894-1.157-2.908c-0.491-2.021-0.489-4.145-0.434-6.212
			c0.096-1.831,0.122-3.991,0.409-5.797c0.211-1.32,0.63-2.639,1.437-3.72c0.644-0.873,1.476-1.596,2.358-2.219
			c1.259-0.885,2.662-1.599,4.058-2.241c3.262-1.471,6.702-2.711,10.174-3.58c3.498-0.878,7.141-1.338,10.746-1.035
			c1.858,0.156,3.729,0.48,5.487,1.114c0.653,0.243,1.306,0.531,1.865,0.952c0.301,0.23,0.578,0.506,0.754,0.845
			c0.146,0.279,0.209,0.596,0.215,0.909c0.006,0.231-0.017,0.467-0.049,0.695c-0.124,0.795-0.491,2.302-0.663,3.108"/>
	</g>
	<g id="POLYLINE_290_">
		
			<path fill="none" stroke="#E74C3C" stroke-width="2.5" stroke-linecap="round" stroke-linejoin="round" stroke-miterlimit="10" d="
			M177.516,99.997c1.866-0.419,3.709-1.426,5.394-2.321c0.536-0.309,1.062-0.713,1.3-1.303c0.157-0.382,0.207-0.801,0.221-1.211
			c0.028-1.136-0.22-2.375-0.383-3.499c-0.087-0.526-0.197-1.071-0.337-1.585"/>
	</g>
	<g id="POLYLINE_291_">
		
			<path fill="none" stroke="#E74C3C" stroke-width="2.5" stroke-linecap="round" stroke-linejoin="round" stroke-miterlimit="10" d="
			M653.809,369.845c5.953-4.602,11.987-9.891,17.537-14.978c4.296-3.997,8.741-8.243,12.473-12.766
			c1.23-1.495,2.405-3.141,3.456-4.768c1.267-1.955,2.922-4.757,4.344-6.555c2.211-2.844,4.975-5.261,7.796-7.483
			c5.867-4.631,14.107-9.536,20.31-13.77c0.725-0.514,1.462-1.068,2.096-1.693c0.837-0.809,1.478-1.803,2.003-2.837
			c0.749-1.462,1.616-3.598,2.335-5.073c1.092-2.297,2.983-5.647,4.223-7.887"/>
	</g>
	<g id="POLYLINE_292_">
		
			<path fill="none" stroke="#E74C3C" stroke-width="2.5" stroke-linecap="round" stroke-linejoin="round" stroke-miterlimit="10" d="
			M657.267,392.613c1.418-0.938,3.059-2.007,4.356-3.084c1.038-0.848,2.015-1.801,2.889-2.818c2.579-3.055,5.104-6.893,7.821-9.825
			c4.133-4.514,9.086-8.389,13.966-12.064c3.757-2.736,13.841-9.944,17.364-12.683l11.523-9.25c3.023-2.342,6.218-4.59,9.584-6.41
			c4.03-2.205,8.377-3.953,12.718-5.441"/>
	</g>
	<g id="POLYLINE_293_">
		
			<path fill="none" stroke="#E74C3C" stroke-width="2.5" stroke-linecap="round" stroke-linejoin="round" stroke-miterlimit="10" d="
			M653.809,369.845c-1.216-0.687-2.58-1.107-3.924-1.469c-2.794-0.72-5.717-1.118-8.586-1.4c-1.329-0.113-2.713-0.233-4.047-0.179
			c-0.359,0.021-0.723,0.062-1.067,0.17c-0.264,0.083-0.516,0.212-0.728,0.391c-0.218,0.183-0.394,0.413-0.54,0.657
			c-0.254,0.429-0.433,0.909-0.595,1.38c-0.331,0.984-0.577,2.046-0.787,3.063c-1.739,8.649-1.056,17.966-3.389,26.513
			c-0.728,2.843-1.802,6.371-2.276,9.236c-0.52,3.071-0.733,6.245-0.644,9.359c0.063,1.624,0.179,3.28,0.607,4.853
			c0.318,1.156,0.888,2.313,1.934,2.968c0.537,0.345,1.153,0.553,1.772,0.69c1.17,0.259,2.429,0.272,3.625,0.273
			c0.762-0.006,1.607,0.045,2.193-0.531c0.307-0.293,0.521-0.671,0.706-1.049c0.904-2.019,1.41-4.34,1.938-6.487
			c0.619-2.685,1.178-5.858,2.527-8.28c1.439-2.615,3.547-4.812,5.791-6.752c1.635-1.428,3.936-2.919,5.738-4.146
			c1.081-0.763,2.201-1.568,2.919-2.703c0.387-0.609,0.648-1.311,0.679-2.036c0.031-0.627-0.121-1.257-0.419-1.809
			c-0.668-1.221-1.89-2.186-2.805-3.215c-0.817-0.884-1.573-1.847-2.189-2.883c-0.481-0.809-0.878-1.685-1.053-2.614
			c-0.114-0.598-0.131-1.219-0.04-1.821c0.085-0.577,0.272-1.139,0.498-1.675c0.755-1.81,2.116-3.575,3.054-5.291
			c0.444-0.84,0.853-1.755,0.831-2.723c-0.008-0.449-0.116-0.902-0.359-1.283C654.847,370.53,654.335,370.152,653.809,369.845z"/>
	</g>
	<g id="POLYLINE_294_">
		
			<path fill="none" stroke="#E74C3C" stroke-width="2.5" stroke-linecap="round" stroke-linejoin="round" stroke-miterlimit="10" d="
			M755.485,310.496c-0.494-1.357-1.045-2.724-1.846-3.931c-1.089-1.657-2.545-3.054-4.062-4.317
			c-1.617-1.329-3.374-2.52-5.215-3.516c-1.478-0.799-3.071-1.471-4.644-2.059c-1.933-0.732-4.864-1.645-6.714-2.529
			c-0.558-0.267-1.117-0.565-1.615-0.935c-0.467-0.352-0.929-0.793-1.068-1.381c-0.123-0.529,0.04-1.073,0.246-1.56
			c0.156-0.369,0.356-0.737,0.554-1.085c1.038-1.794,2.567-4.023,3.721-5.765c2.46-3.606,5.393-7.721,8.076-11.156
			c1.868-2.379,3.883-4.827,6.061-6.926l2.667-2.538c0.82-0.799,1.62-1.659,2.289-2.589c1.735-2.433,2.917-5.259,4.021-8.022
			c1.22-3.132,2.653-7.337,4.284-10.24c1.769-3.193,4.124-6.061,6.73-8.608"/>
	</g>
	<g id="POLYLINE_295_">
		
			<path fill="none" stroke="#E74C3C" stroke-width="2.5" stroke-linecap="round" stroke-linejoin="round" stroke-miterlimit="10" d="
			M757.235,311.379l2.718-1.672c4.542-2.852,8.742-6.413,12.778-9.933c5.089-4.526,10.116-9.368,14.444-14.634"/>
	</g>
	<g id="POLYLINE_296_">
		
			<path fill="none" stroke="#E74C3C" stroke-width="2.5" stroke-linecap="round" stroke-linejoin="round" stroke-miterlimit="10" d="
			M757.962,312.485c4.139-0.343,8.854,0.049,13.009-0.04c5.091-0.093,10.358-0.471,15.415-1.07c3.622-0.449,7.386-1.018,10.92-1.928
			c2.575-0.66,5.137-1.576,7.583-2.618c4.077-1.861,11.075-4.627,15.241-6.369"/>
	</g>
	<g id="POLYLINE_297_">
		
			<path fill="none" stroke="#E74C3C" stroke-width="2.5" stroke-linecap="round" stroke-linejoin="round" stroke-miterlimit="10" d="
			M768.13,331.823c4.566-1.281,9.262-2.452,14.001-2.802c6.57-0.541,17.14,0.452,23.813,0.61c9.458,0.305,28.879-0.934,38.532-1.313
			c3.494-0.21,7.038-0.615,10.4-1.623c2.011-0.607,3.993-1.43,5.714-2.649c1.131-0.802,2.147-1.793,2.89-2.969
			c1.303-2.069,1.795-4.556,1.82-6.976c0.011-1.761-0.225-3.531-0.719-5.222c-0.513-1.772-1.346-3.458-2.255-5.058
			c-2.783-4.539-6.381-11.569-9.124-16.144"/>
	</g>
	<g id="POLYLINE_298_">
		
			<path fill="none" stroke="#E74C3C" stroke-width="2.5" stroke-linecap="round" stroke-linejoin="round" stroke-miterlimit="10" d="
			M768.225,332.735c0.039-0.404-0.045-0.811-0.186-1.189c-0.228-0.607-0.592-1.158-0.989-1.667
			c-0.384-0.474-0.898-1.085-1.383-1.449c-0.338-0.252-0.757-0.36-1.173-0.385c-0.861-0.045-1.989,0.061-2.853,0.056
			c-1.056,0.002-2.132-0.086-3.138-0.422c-1.871-0.612-3.29-2.179-4.142-3.91c-0.543-1.14-0.905-2.451-0.635-3.711
			c0.213-0.968,0.91-1.729,1.631-2.368c1.036-0.937,2.435-1.821,2.741-3.279c0.235-1.031-0.041-2.184-0.783-2.951
			c-0.454-0.477-1.074-0.761-1.703-0.93c-0.743-0.198-1.523-0.263-2.289-0.287c-1.687-0.07-4.23,0.177-5.935,0.253
			c-1.119,0.063-4.193,0.105-5.345,0.124c-1.348,0.056-2.747,0.101-4.047,0.493c-0.651,0.199-1.294,0.513-1.743,1.038
			c-0.47,0.545-0.697,1.252-0.801,1.953c-0.146,0.999-0.087,2.032-0.002,3.035c0.726,6.441,1.874,13.202,3.073,19.577
			c1.264,6.392,2.692,13.028,4.853,19.177c1.365,3.809,3.024,7.605,5.492,10.838c1.696,2.187,4.046,4.34,6.975,4.337
			c1.54,0.001,3.134-0.525,4.23-1.635c0.338-0.347,0.619-0.756,0.799-1.207c0.177-0.442,0.259-0.919,0.281-1.393
			c0.068-1.685-0.549-3.875-0.862-5.538c-0.905-4.352-0.38-8.862,0.426-13.189c0.552-2.7,1.059-5.507,2.182-8.038
			c0.372-0.818,0.828-1.607,1.379-2.317c0.717-0.934,1.725-1.823,2.543-2.67C767.44,334.42,768.122,333.67,768.225,332.735z"/>
	</g>
	<g id="POLYLINE_299_">
		
			<path fill="none" stroke="#E74C3C" stroke-width="2.5" stroke-linecap="round" stroke-linejoin="round" stroke-miterlimit="10" d="
			M766.524,257.252c2.521,7.829,6.827,15.096,12.571,20.99c4,4.127,8.698,7.59,13.646,10.496c6.1,3.569,12.602,6.571,19.215,9.056
			c3.5,1.296,7.146,2.494,10.789,3.318c2.19,0.486,4.446,0.844,6.695,0.793c3.681-0.063,7.19-1.425,10.505-2.918
			c4.096-1.925,8.153-4.273,11.14-7.737c0.682-0.805,1.327-1.669,1.795-2.619c0.261-0.528,0.427-1.109,0.312-1.7
			c-0.159-0.824-0.63-1.552-1.094-2.237c-0.7-1.022-1.615-2.058-2.427-2.999c-0.913-1.186-22.039-23.46-23.549-25.112"/>
	</g>
	<g id="POLYLINE_300_">
		
			<path fill="none" stroke="#E74C3C" stroke-width="2.5" stroke-linecap="round" stroke-linejoin="round" stroke-miterlimit="10" d="
			M877.873,219.14l1.828,1.891c0.827,0.874,1.635,1.817,2.352,2.781c1.281,1.755,2.844,3.927,4.263,5.527
			c3.937,4.537,11.812,10.861,16.398,14.892c1.958,1.668,4.777,4.335,6.739,5.993c0.929,0.773,1.917,1.518,2.952,2.143
			c1.654,1.008,3.484,1.719,5.364,2.174c1.905,0.453,3.895,0.697,5.848,0.456c0.776-0.103,1.552-0.291,2.254-0.644
			c0.482-0.242,0.922-0.569,1.295-0.958c0.617-0.64,1.055-1.432,1.401-2.245c0.235-0.553,0.44-1.154,0.62-1.727
			c0.761-2.501,1.714-6.242,2.385-8.782c1.072-4.414,2.815-10.857,3.635-15.278c0.502-2.62,0.884-5.385,1.146-8.04l0.994-11.36
			c0.391-3.571,0.743-7.266,2.064-10.635l0.774-1.949c0.349-0.907,0.633-1.856,0.698-2.83c0.115-1.89-0.39-3.775-0.864-5.59
			l-1.551-5.416c-0.925-3.124-1.501-7.423-2-10.666c-0.205-1.154-0.419-2.339-0.855-3.431c-0.211-0.518-0.496-1.022-0.923-1.392
			c-0.788-0.69-1.883-0.806-2.883-0.928c-1.748-0.178-3.609-0.145-5.218,0.638c-1.016,0.503-1.853,1.327-2.459,2.279
			c-1.082,1.678-1.42,3.692-1.417,5.66c0.007,2.818,0.466,6.154,0.444,8.972c0.028,3.354-0.242,7.634,0.382,10.901
			c0.337,1.812,1.184,3.67,1.847,5.386c0.228,0.614,0.435,1.25,0.566,1.893c0.152,0.732,0.217,1.49,0.223,2.238
			c0.009,1.286-0.157,2.602-0.36,3.871c-0.319,1.941-0.741,3.963-1.201,5.876c-0.619,2.524-1.347,5.101-2.312,7.515
			c-0.627,1.626-1.8,3.75-2.611,5.31c-0.466,0.906-0.906,1.87-1.253,2.828c-0.27,0.717-0.645,1.894-1.003,2.575
			c-0.114,0.204-0.236,0.423-0.438,0.551l-0.007,0.004l-0.007,0.004l-0.007,0.004l-0.007,0.004l-0.007,0.004l-0.007,0.003
			l-0.007,0.003l-0.007,0.003l-0.007,0.003l-0.007,0.003l-0.007,0.002l-0.007,0.002l-0.007,0.002l-0.007,0.002l-0.007,0.002
			l-0.007,0.002l-0.007,0.001l-0.007,0.001l-0.007,0.001l-0.008,0.001l-0.008,0.001l-0.007,0.001l-0.008,0l-0.008,0l-0.008,0
			l-0.008,0l-0.008,0l-0.008-0.001l-0.008-0.001l-0.008-0.001l-0.008-0.001l-0.008-0.001l-0.008-0.002l-0.008-0.002l-0.008-0.002
			l-0.008-0.002l-0.008-0.002l-0.008-0.003l-0.008-0.003l-0.008-0.003l-0.008-0.003l-0.008-0.003l-0.008-0.004l-0.008-0.004
			c-0.13-0.063-0.233-0.168-0.327-0.275c-0.564-0.697-1.11-1.885-1.559-2.669c-0.552-1.003-1.199-1.967-1.97-2.816
			c-0.934-1.04-2.037-1.932-3.232-2.658c-1.479-0.932-3.526-1.65-5.159-2.287c-1.01-0.416-2.062-0.851-2.873-1.603
			c-0.583-0.545-0.956-1.275-1.194-2.029c-0.316-0.99-0.576-2.587-0.811-3.607c-0.556-2.563-1.409-5.102-2.803-7.337
			c-1.168-1.883-2.643-3.586-4.256-5.101c-1.789-1.669-3.794-3.149-5.953-4.302"/>
	</g>
	<g id="POLYLINE_301_">
		
			<path fill="none" stroke="#E74C3C" stroke-width="2.5" stroke-linecap="round" stroke-linejoin="round" stroke-miterlimit="10" d="
			M873.854,162.583c0.563,1.256,1.44,2.695,2.121,3.901c0.52,0.94,1.007,1.921,1.308,2.955c0.306,1.033,0.439,2.121,0.381,3.198
			c-0.094,1.841-0.72,3.619-1.57,5.241c-1.026,1.949-2.346,3.747-3.804,5.394c-1.857,2.079-3.978,3.959-6.366,5.407
			c-1.227,0.737-2.541,1.364-3.92,1.757c-1.281,0.367-2.623,0.536-3.955,0.483c-3.253-0.115-6.356-1.574-8.771-3.716
			c-2.01-1.777-3.609-3.991-4.853-6.359c-1.196-2.291-2.081-4.757-2.588-7.292c-0.511-2.422-0.525-5.18-0.62-7.654
			c-0.064-1.162-0.123-2.362-0.516-3.467c-0.245-0.686-0.643-1.31-1.114-1.863c-1.22-1.378-3.137-3.039-4.423-4.387
			c-3.706-3.764-7.304-7.776-10.358-12.092c-2.265-3.231-4.19-6.752-5.749-10.374c-0.366-0.82-0.77-1.946-1.136-2.767
			c-0.081-0.169-0.173-0.342-0.283-0.495c-0.145-0.204-0.333-0.381-0.558-0.493c-0.55-0.265-1.186-0.261-1.783-0.286
			c-3.193,0.03-6.733-0.314-9.912-0.674c-10.433-1.149-27.285-4.03-37.622-4.419c-2.321-0.023-4.703,0.115-6.905,0.904
			c-2.583,0.938-4.891,2.743-7.576,3.425c-1.236,0.332-2.534,0.426-3.81,0.425c-2.463,0.013-6.148-0.477-8.634-0.72
			c-2.126-0.2-4.318-0.359-6.442-0.077c-1.769,0.195-3.753,0.81-5.505,0.854c-0.491,0.004-0.99-0.052-1.455-0.217
			c-0.458-0.162-0.879-0.421-1.246-0.739c-0.938-0.824-1.58-2.026-1.629-3.283c-0.03-0.826,0.233-1.642,0.656-2.346
			c0.811-1.345,2.088-2.332,3.395-3.165c1.404-0.896,3.061-1.694,4.565-2.419c2.26-1.028,5.391-2.591,7.564-3.755
			c1.278-0.647,2.603-1.25,3.981-1.644c1.131-0.33,2.309-0.513,3.485-0.576c3.465-0.214,8.264,0.536,11.751,0.908
			c2.394,0.259,4.884,0.391,7.291,0.346c2.933-0.044,6.068-0.366,8.987-0.726c4.795-0.613,11.408-1.557,16.172-1.875
			c8.58-0.667,17.771,0.285,26.338,0.99c1.464,0.141,2.998,0.304,4.434,0.634c0.812,0.189,1.623,0.438,2.366,0.821
			c0.851,0.434,1.577,1.078,2.235,1.763c0.68,0.718,1.563,1.682,2.312,2.307c1.332,1.149,3.366,2.633,4.717,3.761
			c1.718,1.384,5.148,4.739,6.798,6.285c1.746,1.669,4.209,3.723,6.068,5.293c1.332,1.156,2.648,2.397,3.764,3.764
			c0.82,0.995,1.542,2.116,2.196,3.227c0.874,1.487,2.18,3.962,3.209,5.308c0.438,0.581,0.931,1.134,1.503,1.585
			c1.156,0.936,2.763,1.497,4.125,2.068c2.967,1.235,5.613,3.293,7.494,5.902c0.948,1.32,1.614,2.832,2.172,4.351l1.113,3.14
			C873.431,161.577,873.647,162.124,873.854,162.583z"/>
	</g>
	<g id="POLYLINE_302_">
		
			<path fill="none" stroke="#E74C3C" stroke-width="2.5" stroke-linecap="round" stroke-linejoin="round" stroke-miterlimit="10" d="
			M884.865,190.554c1.023,2.187,1.774,4.52,2.28,6.88c0.399,1.828,0.709,3.714,0.823,5.582c0.134,2.283,0.012,4.632-0.748,6.806
			c-0.642,1.829-1.75,3.474-3.091,4.864c-1.68,1.743-3.718,3.126-5.856,4.247c-2.402,1.292-5.536,2.411-7.798,3.939
			c-0.989,0.666-1.781,1.583-2.482,2.538c-0.86,1.176-1.809,2.439-2.863,3.444c-1.766,1.701-3.814,3.159-5.837,4.537
			c-4.548,3.059-9.731,5.971-14.551,8.598c-2.193,1.181-8.58,4.479-10.649,5.765c-1.145,0.7-2.298,1.471-3.317,2.348
			c-0.738,0.636-1.43,1.351-1.992,2.15c-0.644,0.902-1.102,1.947-1.593,2.931c-0.206,0.398-0.414,0.813-0.722,1.143
			c-0.147,0.155-0.334,0.289-0.551,0.315l-0.016,0.002l-0.016,0.001l-0.016,0.001l-0.016,0.001l-0.016,0h-0.016l-0.016,0
			l-0.016-0.001l-0.016-0.001l-0.017-0.001l-0.017-0.002l-0.017-0.002l-0.017-0.002l-0.017-0.003l-0.017-0.003l-0.017-0.003
			c-0.198-0.042-0.381-0.14-0.551-0.248c-0.292-0.189-0.559-0.427-0.812-0.664c-1.62-1.596-3.194-3.487-5.008-4.868
			c-3.225-2.491-7.228-3.728-11.098-4.831l-7.822-2.087c-3.591-0.975-7.177-2.288-10.566-3.823
			c-2.889-1.306-8.208-3.886-11.102-4.96c-1.452-0.542-2.959-1.02-4.493-1.259c-1.228-0.201-2.671-0.247-3.915-0.338
			c-0.364-0.032-0.743-0.07-1.1-0.153c-0.267-0.063-0.536-0.151-0.759-0.314c-0.194-0.139-0.334-0.347-0.398-0.576
			c-0.088-0.309-0.064-0.638,0.006-0.948c0.247-1.028,0.912-1.899,1.627-2.654c1.356-1.401,3.004-2.542,4.612-3.635
			c2.668-1.724,8.799-5.714,11.514-7.483c2.075-1.294,4.239-2.541,6.518-3.437c1.85-0.752,3.963-1.435,5.537-2.687
			c1.15-0.906,2.07-2.079,2.898-3.277c1.42-2.083,3.293-5.441,4.672-7.551c2.225-3.474,4.704-6.924,7.248-10.171
			c4.236-5.408,9.067-10.709,13.903-15.592c2.513-2.509,5.304-5.194,8.018-7.481c1.907-1.622,4.206-3.349,6.223-4.84"/>
	</g>
	<g id="POLYLINE_303_">
		
			<path fill="none" stroke="#E74C3C" stroke-width="2.5" stroke-linecap="round" stroke-linejoin="round" stroke-miterlimit="10" d="
			M878.152,166.665c0.332-0.101,0.665-0.222,0.969-0.392c0.398-0.221,0.762-0.503,1.099-0.808"/>
	</g>
	<g id="POLYLINE_304_">
		
			<path fill="none" stroke="#E74C3C" stroke-width="2.5" stroke-linecap="round" stroke-linejoin="round" stroke-miterlimit="10" d="
			M887.445,189.145c-0.802,0.543-1.8,1.008-2.663,1.45c-1.036,0.501-2.217,0.978-3.38,0.682c-0.672-0.173-1.279-0.565-1.75-1.07
			c-0.507-0.541-0.86-1.239-0.929-1.982c-0.093-0.951,0.152-1.903,0.383-2.819c0.583-2.085,1.075-4.295,1.274-6.449
			c0.218-2.239,0.222-4.531-0.182-6.749c-0.308-1.668-0.873-3.298-1.646-4.808c-0.663-1.268-1.457-2.508-2.529-3.47
			c-0.631-0.571-1.412-0.972-2.17-1.347"/>
	</g>
	<g id="POLYLINE_305_">
		
			<path fill="none" stroke="#E74C3C" stroke-width="2.5" stroke-linecap="round" stroke-linejoin="round" stroke-miterlimit="10" d="
			M890.815,165.88c-0.635,0.575-1.334,1.114-2.154,1.391c-0.585,0.203-1.211,0.274-1.827,0.289c-0.991,0.02-1.992-0.105-2.966-0.284
			c-0.885-0.173-1.796-0.362-2.606-0.771c-0.365-0.19-0.718-0.441-0.931-0.8c-0.198-0.334-0.232-0.736-0.202-1.116
			c0.023-0.287,0.08-0.576,0.148-0.855c0.236-0.929,0.625-2.039,0.847-2.97c0.392-1.616,0.855-3.813,1.441-5.345
			c0.353-0.95,0.814-1.874,1.354-2.731c2.289-3.58,5.853-6.403,9.905-7.709c2.159-0.695,4.456-0.958,6.719-0.906
			c2.045,0.053,4.103,0.356,6.055,0.973c1.47,0.461,2.879,1.133,4.15,2.006c1.745,1.186,3.256,2.713,4.653,4.284
			c1.541,1.78,3.213,3.587,4.271,5.709c0.453,0.914,0.765,1.907,0.866,2.924c0.202,1.989-0.235,3.998-0.943,5.851"/>
	</g>
	<g id="POLYLINE_306_">
		
			<path fill="none" stroke="#E74C3C" stroke-width="2.5" stroke-linecap="round" stroke-linejoin="round" stroke-miterlimit="10" d="
			M893.94,171.038c-1.262-0.42-2.73-1.049-3.133-2.44c-0.152-0.508-0.176-1.049-0.146-1.576c0.053-0.836,0.247-1.665,0.498-2.462
			c0.373-1.133,0.832-2.267,1.553-3.225c0.386-0.506,0.866-0.953,1.437-1.244c0.732-0.369,1.583-0.507,2.393-0.384
			c0.456,0.072,0.909,0.24,1.258,0.548c0.452,0.394,0.699,0.973,0.798,1.555c0.161,0.911-0.043,1.92-0.15,2.83
			c-0.072,0.675-0.153,1.425,0.207,2.034c0.119,0.196,0.309,0.358,0.538,0.403c0.171,0.035,0.349,0.012,0.518-0.027
			c0.826-0.22,1.814-0.798,2.703-1.064c1.885-0.593,4.001-0.445,5.878-1.074c0.545-0.18,1.072-0.43,1.539-0.764
			c1.027-0.739,1.8-1.778,2.504-2.815c0.437-0.629,1.136-1.829,1.669-2.38c0.131-0.134,0.279-0.259,0.451-0.336
			c0.391-0.183,0.815-0.008,1.155,0.205c0.45,0.283,0.841,0.656,1.2,1.045c0.462,0.505,0.875,1.061,1.239,1.641
			c0.681,1.081,1.184,2.281,1.425,3.538c0.344,1.746,0.222,3.557-0.111,5.295c-0.508,2.506-1.312,4.991-2.568,7.225
			c-0.613,1.04-1.35,2.103-2.461,2.651c-0.432,0.227-1.009,0.385-1.465,0.559c-0.193,0.074-0.385,0.161-0.554,0.282
			c-0.245,0.173-0.42,0.429-0.54,0.701c-0.157,0.354-0.245,0.743-0.327,1.12c-0.302,1.471-0.583,3.06-1.175,4.445
			c-0.2,0.454-0.44,0.903-0.789,1.26c-0.181,0.184-0.396,0.342-0.644,0.421c-0.297,0.098-0.615,0.05-0.892-0.09
			c-0.436-0.209-0.913-0.637-1.296-0.934c-0.233-0.175-0.473-0.368-0.762-0.437c-0.496-0.114-0.858,0.34-1.132,0.685
			c-0.257,0.329-0.536,0.715-0.863,0.976c-0.261,0.21-0.567,0.361-0.872,0.496c-0.357,0.154-0.863,0.354-1.197,0.532
			c-0.377,0.195-0.754,0.43-1.105,0.668c-0.967,0.643-2.015,1.579-3.002,2.192c-1.114,0.685-2.382,1.097-3.651,1.383
			c-0.437,0.096-0.896,0.151-1.336,0.043c-0.365-0.085-0.703-0.263-1.014-0.469c-0.425-0.282-0.819-0.623-1.189-0.974
			c-1.68-1.649-3.081-3.616-4.022-5.777c-0.657-1.525-1.045-3.163-1.245-4.809"/>
	</g>
	<g id="POLYLINE_307_">
		
			<path fill="none" stroke="#E74C3C" stroke-width="2.5" stroke-linecap="round" stroke-linejoin="round" stroke-miterlimit="10" d="
			M351.359,328.788c-3.831,2.28-9.37,3.376-13.646,4.605c-3.562,0.997-7.177,2.271-10.034,4.699
			c-2.118,1.765-4.148,4.285-5.945,6.385c-0.665,0.765-1.368,1.555-2.147,2.206c-0.654,0.547-1.389,1.034-2.221,1.254
			c-0.805,0.207-1.679,0.159-2.458-0.132c-0.978-0.365-1.712-1.192-2.154-2.118c-0.781-1.626-0.869-3.51-0.57-5.267
			c0.363-2.046,1.138-4.008,2.059-5.863c0.873-1.725,1.903-3.404,3.254-4.797c0.646-0.667,1.377-1.272,2.152-1.783
			c1.163-0.781,2.718-1.49,3.984-2.11c1.206-0.586,2.464-1.205,3.469-2.106c0.591-0.521,1.114-1.129,1.595-1.752
			c3.139-4.2,7.037-10.491,10.608-14.295c0.866-0.891,1.804-1.823,2.967-2.306c0.462-0.186,0.968-0.269,1.464-0.219
			c0.962,0.099,1.841,0.573,2.658,1.063c1.185,0.731,2.29,1.624,3.31,2.569c1.547,1.478,3.575,3.727,5.123,5.199"/>
	</g>
	<g id="POLYLINE_308_">
		
			<path fill="none" stroke="#E74C3C" stroke-width="2.5" stroke-linecap="round" stroke-linejoin="round" stroke-miterlimit="10" d="
			M473.783,285.554c-2.336,3.48-5.001,7.543-7.671,10.732c-1.99,2.413-4.208,4.704-6.533,6.797
			c-5.336,4.83-13.756,10.973-19.096,15.788c-1.674,1.503-3.313,3.143-4.744,4.88c-0.769,0.91-2.267,2.834-3.071,3.662
			c-0.748,0.793-1.587,1.528-2.57,2.014c-0.709,0.356-1.486,0.565-2.268,0.682c-2.98,0.422-6.649-0.217-9.642-0.49
			c-3.228-0.36-6.566-0.399-9.81-0.262c-4.045,0.183-9.753,0.585-13.739,0.536c-2.064-0.017-4.254-0.165-6.31-0.374
			c-4.789-0.439-11.173-1.774-15.973-2.136c-4.98-0.367-11.763,0.714-16.763,1.177c-1.162,0.102-2.441,0.217-3.605,0.233
			c-0.448,0.002-0.909,0.003-1.353-0.065c-0.254-0.042-0.514-0.113-0.715-0.28c-0.225-0.185-0.335-0.468-0.398-0.745
			c-0.166-0.801-0.113-1.638-0.06-2.449c0.153-1.861,0.497-3.751,0.913-5.571c0.229-0.962,0.479-1.95,0.929-2.835
			c0.305-0.603,0.726-1.153,1.247-1.585c0.633-0.529,1.387-0.899,2.152-1.196c1.604-0.609,3.319-0.933,5.011-1.185
			c8.503-1.225,18.313-0.371,26.527-3.208c2.762-0.951,6.456-2.428,9.308-2.919c4.896-0.934,10.381,0.135,15.292,0.64
			c1.63,0.16,3.306,0.314,4.941,0.175c0.983-0.085,1.977-0.332,2.8-0.895c0.51-0.341,0.949-0.784,1.337-1.256
			c0.625-0.752,1.641-2.326,2.213-3.139c3.031-4.254,6.932-9.535,9.409-14.081c2.507-4.407,5.518-11.95,7.571-16.663
			c1.686-3.835,3.739-7.608,5.997-11.136"/>
	</g>
	<g id="POLYLINE_309_">
		
			<path fill="none" stroke="#E74C3C" stroke-width="2.5" stroke-linecap="round" stroke-linejoin="round" stroke-miterlimit="10" d="
			M458.116,209.382c-0.045-0.91,0.004-1.836,0.155-2.735"/>
	</g>
	<g id="POLYLINE_310_">
		
			<path fill="none" stroke="#E74C3C" stroke-width="2.5" stroke-linecap="round" stroke-linejoin="round" stroke-miterlimit="10" d="
			M496.751,232.897c-0.122-2.449-0.042-4.943,0.444-7.351c0.362-1.851,1.03-3.649,1.783-5.373c0.529-1.197,1.831-3.988,2.266-5.174
			c0.595-1.533,1.168-3.542,1.638-5.132"/>
	</g>
	<g id="POLYLINE_311_">
		
			<path fill="none" stroke="#E74C3C" stroke-width="2.5" stroke-linecap="round" stroke-linejoin="round" stroke-miterlimit="10" d="
			M455.073,269.577c-2.48-1.351-4.729-3.032-6.672-5.084c-3.452-3.575-5.988-8.059-7.114-12.909
			c-0.997-4.321-1.077-8.831-0.688-13.234c0.397-4.104,1.204-8.229,2.744-12.065c1.277-3.142,3.193-6.096,5.865-8.224
			c0.545-0.434,1.129-0.837,1.729-1.19c0.779-0.469,1.986-1.034,2.766-1.501c0.773-0.451,1.419-1.019,1.923-1.762
			c0.651-0.919,1.022-1.985,1.455-3.012c0.166-0.362,0.366-0.724,0.673-0.986c0.617-0.526,1.508-0.424,2.249-0.284
			c1.979,0.434,3.827,1.379,5.623,2.291c8.643,4.565,16.933,10.692,24.632,16.716c1.086,0.809,2.243,1.63,3.403,2.327
			c0.862,0.53,1.888,1.067,2.637,1.746c0.359,0.327,0.675,0.724,0.82,1.193c0.183,0.591,0.077,1.227-0.09,1.809
			c-0.641,2.039-2.035,4.032-2.931,5.97c-1.551,3.275-2.625,6.797-3.401,10.331"/>
	</g>
	<g id="POLYLINE_312_">
		
			<path fill="none" stroke="#E74C3C" stroke-width="2.5" stroke-linecap="round" stroke-linejoin="round" stroke-miterlimit="10" d="
			M542.503,387.584c-2.302-5.207-4.44-10.633-5.773-16.174c-1.869-7.438-2.489-17.567-3.232-25.263
			c-0.466-4.748-1.141-9.626-2.283-14.259c-1.154-4.93-3.086-10.585-3.165-15.67c-0.009-1.131,0.112-2.272,0.334-3.381
			c0.32-1.663,0.995-3.62,1.498-5.243c0.4-1.312,0.722-2.678,0.762-4.053c0.044-1.29-0.163-2.601-0.697-3.782
			c-1.019-2.229-3.167-4.104-4.81-5.883c-2.169-2.255-4.215-5.505-6.073-8.033c-2.916-4.036-9.168-10.774-12.512-14.624
			c-7.341-8.477-15.002-18.347-21.809-27.274c-0.4-0.494-0.828-0.986-1.363-1.339c-0.522-0.349-1.137-0.531-1.754-0.621
			c-0.966-0.14-1.959-0.103-2.927-0.001c-6.815,0.822-12.911,4.589-17.922,9.118c-1.766,1.607-3.467,3.373-4.944,5.249
			c-0.993,1.27-1.927,2.619-2.63,4.073c-0.529,1.103-0.919,2.31-0.876,3.545c0.03,1.075,0.404,2.113,0.927,3.043
			c1.03,1.807,2.47,3.369,3.917,4.85c5.053,5.003,11.019,9.463,16.691,13.75c6.29,4.61,23.373,16.802,29.236,21.424
			c0.574,0.465,1.202,0.952,1.724,1.472c0.268,0.27,0.513,0.571,0.676,0.917c0.177,0.369,0.257,0.778,0.299,1.182
			c0.09,0.916,0.039,1.891-0.004,2.811c-0.254,3.858-0.639,8.415-0.304,12.239c0.38,4.91,1.418,9.795,3.069,14.435
			c0.547,1.532,1.207,3.092,1.918,4.556c0.948,2.011,3.285,6.077,4.325,8.078c3.636,6.978,5.529,14.776,7.07,22.448l2.727,14.954
			c0.224,1.085,0.451,2.221,0.798,3.272c0.065,0.212,0.147,0.426,0.241,0.626c0.105,0.217,0.245,0.423,0.436,0.573
			c0.265,0.211,0.608,0.287,0.94,0.289c0.725-0.003,1.44-0.21,2.127-0.427c1.362-0.45,2.704-1.067,3.987-1.708
			c1.486-0.75,2.97-1.589,4.374-2.482c0.859-0.553,1.912-1.3,2.737-1.92c0.253-0.177,0.514-0.362,0.784-0.51
			c0.312-0.173,0.657-0.311,1.018-0.317c0.599-0.008,1.135,0.322,1.609,0.655c1.55,1.171,3.033,2.814,4.532,4.049
			c3.633,3.067,7.93,5.685,12.728,6.267c3.314,0.394,6.831-0.382,10.116-0.778c1.509-0.158,3.102-0.313,4.564,0.187
			c0.616,0.22,1.183,0.579,1.643,1.044c0.643,0.651,1.109,1.528,1.119,2.457c0.009,0.615-0.258,1.199-0.641,1.669
			c-0.51,0.636-1.178,1.147-1.82,1.642c-4.12,3.005-8.504,6.914-13.465,8.379c-3.161,0.978-6.539,0.563-9.716-0.121l-5.945-1.366
			c-1.26-0.262-2.571-0.488-3.853-0.589c-1.753-0.14-3.547-0.089-5.296,0.07c-1.888,0.16-4.74,0.638-6.636,0.849
			c-0.421,0.04-0.87,0.076-1.292,0.073c-0.587-0.004-1.186-0.075-1.729-0.31c-0.694-0.291-1.226-0.861-1.625-1.485
			c-0.741-1.172-1.161-2.524-1.477-3.865c-0.491-2.16-0.664-4.397-0.603-6.609c0.068-2.249,0.376-4.514,1.044-6.668"/>
	</g>
	<g id="POLYLINE_313_">
		
			<path fill="none" stroke="#E74C3C" stroke-width="2.5" stroke-linecap="round" stroke-linejoin="round" stroke-miterlimit="10" d="
			M510.852,184.101c1.489,2.004,3.321,4.507,4.953,6.367c1.301,1.543,5.433,5.739,6.88,7.261c1.558,1.662,3.093,3.419,4.349,5.321
			c1.23,1.842,2.514,3.95,4.268,5.332c1.907,1.521,4.252,2.562,6.654,2.982c1.407,0.229,2.903,0.235,4.241-0.308
			c2.292-0.956,3.517-3.337,4.363-5.538c0.726-1.926,1.231-4.004,1.698-6.007c1.041-4.516,1.779-9.29,2.295-13.898l0.883-9.009
			c0.417-3.563,0.968-7.213,2.472-10.499c0.602-1.304,1.382-2.563,2.177-3.759c0.822-1.265,1.947-2.8,2.606-4.146
			c0.315-0.63,0.58-1.296,0.732-1.985c0.184-0.821,0.219-1.676,0.16-2.514c-0.149-2.1-0.925-4.582-1.415-6.631
			c-0.423-1.561-0.876-3.172-1.789-4.526c-0.344-0.501-0.767-0.959-1.279-1.292c-0.496-0.323-1.063-0.529-1.643-0.639
			c-0.931-0.175-1.901-0.125-2.819,0.101c-0.758,0.189-1.499,0.507-2.106,1.007c-1.074,0.878-1.642,2.213-2.208,3.445
			c-1.413,3.154-2.688,6.45-3.192,9.885c-0.548,3.639,0.108,7.569,0.061,11.226c-0.013,1.318-0.141,2.657-0.386,3.953
			c-0.326,1.759-0.849,3.546-1.395,5.249c-0.928,2.697-2.355,7.226-3.139,9.957c-0.171,0.519-0.344,1.07-0.599,1.556
			c-0.059,0.106-0.124,0.215-0.211,0.3l-0.007,0.007l-0.007,0.006l-0.007,0.006l-0.007,0.006l-0.007,0.006l-0.007,0.005
			l-0.007,0.005l-0.007,0.005l-0.007,0.005l-0.007,0.004l-0.007,0.004l-0.007,0.004l-0.007,0.003l-0.007,0.003l-0.007,0.003
			l-0.007,0.003l-0.007,0.002l-0.007,0.002l-0.007,0.002l-0.007,0.002l-0.007,0.001l-0.007,0.001l-0.007,0.001l-0.007,0l-0.007,0
			l-0.005,0l-0.005,0l-0.005,0l-0.005-0.001l-0.005-0.001l-0.005-0.001l-0.005-0.001l-0.005-0.001l-0.005-0.002l-0.005-0.002
			l-0.005-0.002l-0.005-0.002l-0.005-0.002l-0.005-0.002l-0.005-0.003l-0.005-0.003l-0.005-0.003l-0.005-0.003l-0.005-0.003
			l-0.005-0.003l-0.005-0.004l-0.005-0.004l-0.005-0.004l-0.005-0.004l-0.005-0.004l-0.005-0.004l-0.005-0.005
			c-0.051-0.046-0.092-0.104-0.128-0.162c-0.134-0.225-0.227-0.48-0.318-0.725c-0.417-1.204-0.875-2.622-1.509-3.722
			c-0.792-1.428-1.826-2.737-2.884-3.977c-2.239-2.547-4.821-5.354-6.633-8.21c-0.842-1.3-1.551-2.71-2.163-4.132l-1.984-4.763
			c-0.919-2.118-1.941-4.242-3.282-6.129c-0.871-1.219-1.897-2.359-3.151-3.193c-2.516-1.686-5.785-2.136-8.65-2.939
			c-3.716-1.024-7.35-2.959-10.973-4.26"/>
	</g>
	<g id="POLYLINE_314_">
		
			<path fill="none" stroke="#E74C3C" stroke-width="2.5" stroke-linecap="round" stroke-linejoin="round" stroke-miterlimit="10" d="
			M446.55,140.463c-0.685,0.021-1.379-0.048-2.051-0.181c-0.507-0.105-1.018-0.246-1.477-0.492c-0.312-0.172-0.645-0.419-0.71-0.791
			c-0.037-0.216,0.014-0.436,0.084-0.64c0.299-0.826,0.909-1.586,0.983-2.483c0.03-0.378-0.072-0.754-0.221-1.099
			c-0.328-0.763-0.906-1.472-1.252-2.227c-0.193-0.421-0.297-0.869-0.149-1.322c0.108-0.348,0.315-0.657,0.542-0.938
			c0.464-0.591,1.395-1.374,1.938-1.902c0.793-0.76,1.56-1.625,1.902-2.689c0.105-0.35,0.156-0.747,0.003-1.09
			c-0.218-0.481-0.794-0.638-1.263-0.763c-1.347-0.342-3.115-0.385-3.926-1.69c-0.666-1.051-0.805-2.433-1.264-3.573
			c-0.216-0.547-0.52-1.035-1.025-1.357c-0.609-0.408-1.385-0.589-2.03-0.926c-0.263-0.14-0.516-0.321-0.676-0.578
			c-0.271-0.45-0.25-1.012-0.144-1.509c0.091-0.409,0.254-0.805,0.483-1.157c0.19-0.29,0.428-0.556,0.728-0.735
			c0.723-0.425,1.643-0.245,2.441-0.312c0.343-0.025,0.689-0.093,0.997-0.25c0.438-0.223,0.797-0.573,1.136-0.923l0.751-0.803
			c0.456-0.471,0.957-0.945,1.59-1.157c0.819-0.261,1.694-0.034,2.496,0.186c0.95,0.266,2.082,0.712,3.07,0.716
			c0.432,0.001,0.858-0.108,1.26-0.26c0.545-0.196,1.137-0.534,1.721-0.587c0.634-0.064,1.184,0.338,1.661,0.704
			c0.506,0.393,1.039,0.889,1.602,1.197c0.293,0.163,0.626,0.264,0.963,0.248c0.575-0.016,1.153-0.287,1.7-0.439
			c0.32-0.092,0.661-0.137,0.991-0.07c0.645,0.127,1.191,0.53,1.704,0.92"/>
	</g>
	<g id="POLYLINE_315_">
		
			<path fill="none" stroke="#E74C3C" stroke-width="2.5" stroke-linecap="round" stroke-linejoin="round" stroke-miterlimit="10" d="
			M456.645,180.483c-1.413-3.728-2.757-7.773-3.906-11.59c-0.352-1.213-0.726-2.563-0.974-3.796
			c-0.129-0.609-0.22-1.405-0.348-2.015c-0.074-0.32-0.173-0.659-0.415-0.893c-0.13-0.126-0.3-0.204-0.475-0.245
			c-0.305-0.072-0.624-0.061-0.933-0.028c-1.533,0.205-3.03,0.83-4.47,1.373c-4.189,1.745-8.952,3.531-13.281,4.844
			c-2.822,0.856-5.931,1.826-8.814,2.422l-0.743,0.13c-0.166,0.036-0.354,0.066-0.481,0.188c-0.067,0.065-0.097,0.159-0.104,0.25
			c-0.012,0.154,0.019,0.309,0.055,0.458c0.11,0.43,0.294,0.849,0.479,1.251c1.029,2.114,2.357,4.116,3.785,5.981
			c1.283,1.659,2.773,3.198,4.307,4.626c2.501,2.295,7.37,6.616,9.69,8.957c0.676,0.687,1.77,1.886,2.489,2.484
			c0.591,0.51,1.245,0.974,1.897,1.403c1.861,1.223,4.702,2.808,6.53,4.057c0.441,0.305,0.897,0.631,1.296,0.99
			c0.39,0.348,0.739,0.749,1.001,1.202c0.367,0.628,0.588,1.336,0.778,2.035c0.56,2.198,0.928,4.499,0.941,6.771
			c-0.006,0.457-0.03,0.925-0.119,1.375c-0.051,0.248-0.123,0.499-0.255,0.717c-0.238,0.406-0.678,0.569-1.116,0.665
			c-1.764,0.315-3.972,0.645-5.75,0.814c-1.356,0.118-2.747,0.197-4.102,0.041c-0.829-0.1-1.69-0.306-2.337-0.863
			c-0.572-0.482-0.923-1.165-1.22-1.838l-0.827-1.947c-0.967-2.127-2.121-4.224-3.418-6.168c-0.574-0.85-1.195-1.69-1.894-2.442
			c-0.616-0.668-1.318-1.279-2.035-1.837c-5.968-4.593-21.177-15.572-26.58-20.423c-1.167-1.038-2.35-2.144-3.37-3.327
			c-0.969-1.146-1.91-2.418-2.231-3.912c-0.138-0.669-0.118-1.368,0.036-2.033c0.209-0.911,0.644-1.758,1.143-2.542
			c1.242-1.925,2.871-3.598,4.535-5.162c1.991-1.834,4.141-3.632,6.344-5.206c2.074-1.474,4.301-2.781,6.649-3.768
			c3.135-1.352,7.212-2.192,10.525-3.059c1.854-0.491,3.735-1.043,5.438-1.939c2.427-1.264,4.705-3.224,6.964-4.758
			c2.319-1.596,4.775-3.111,7.307-4.344c1.582-0.763,3.239-1.449,4.946-1.875c1.959-0.507,4.017-0.5,6.016-0.259
			c1.066,0.125,2.326,0.317,3.398,0.25c0.654-0.031,1.585-0.157,2.238-0.189c1.022-0.059,2.246-0.005,3.272,0.026"/>
	</g>
	<g id="POLYLINE_316_">
		
			<path fill="none" stroke="#E74C3C" stroke-width="2.5" stroke-linecap="round" stroke-linejoin="round" stroke-miterlimit="10" d="
			M468.502,137.334c0.826,0.412,1.661,0.854,2.315,1.516c0.71,0.705,1.19,1.605,1.576,2.519c0.798,1.943,1.234,4.039,1.578,6.105
			c0.638,3.961,0.656,8.082-0.388,11.976c-0.664,2.495-1.768,4.866-3.096,7.074c-1.728,2.852-3.856,5.501-6.283,7.787
			c-1.499,1.447-3.465,2.815-5.18,4.009c-0.688,0.503-1.42,1.024-1.992,1.662c-0.286,0.319-0.538,0.681-0.677,1.089
			c-0.132,0.384-0.151,0.8-0.107,1.202c0.118,1.07,0.62,2.241,0.901,3.276c0.324,1.081,0.517,2.21,0.577,3.337
			c0.217,3.992-0.669,8.754-1.101,12.729c-0.057,0.63-0.124,1.314-0.122,1.948c0.002,0.689,0.036,1.404,0.312,2.045
			c0.11,0.246,0.266,0.476,0.477,0.646c0.214,0.174,0.474,0.282,0.741,0.346c0.342,0.083,0.701,0.102,1.052,0.101
			c1.084-0.01,3.001-0.294,4.106-0.423c3.383-0.397,6.907-0.391,10.311-0.282c5.03,0.187,10.226,0.676,15.201,1.443
			c3.262,0.484,8.371,1.674,11.637,2.234c0.619,0.09,1.28,0.182,1.906,0.199c0.787,0.02,1.681-0.016,2.275-0.599
			c0.295-0.292,0.473-0.681,0.589-1.075c0.19-0.652,0.254-1.346,0.304-2.022c0.15-2.606-0.005-5.605,0.322-8.193
			c0.188-1.489,0.572-2.967,1.094-4.373c0.6-1.665,1.802-4.025,2.539-5.648c0.828-1.818,1.54-3.722,1.953-5.679
			c0.492-2.305,0.62-4.695,0.572-7.046c-0.126-4.402-0.805-8.894-2.749-12.884c-1.25-2.584-2.981-4.939-4.765-7.176
			c-3.145-3.871-6.789-7.85-10.228-11.467"/>
	</g>
	<g id="POLYLINE_317_">
		
			<path fill="none" stroke="#E74C3C" stroke-width="2.5" stroke-linecap="round" stroke-linejoin="round" stroke-miterlimit="10" d="
			M468.502,137.334c0.849-0.296,1.759-0.401,2.654-0.369c0.784,0.035,1.584,0.167,2.288,0.528c0.65,0.33,1.163,0.872,1.6,1.446
			c0.926,1.234,1.708,2.619,2.42,3.986c0.976,1.898,1.835,3.919,2.503,5.947c0.982,3.026,1.988,6.756,3.624,9.479
			c1.774,3.004,4.251,5.625,7.229,7.454c1.373,0.836,2.874,1.483,4.442,1.843c1.039,0.238,2.117,0.365,3.183,0.29
			c1.204-0.086,2.574-0.475,3.178-1.615c0.253-0.464,0.369-0.992,0.408-1.516c0.058-0.824-0.06-1.655-0.24-2.458
			c-0.664-2.825-2.105-5.42-3.546-7.914c-1.263-2.173-2.902-4.689-3.584-7.116c-0.48-1.689-0.605-3.48-0.448-5.226
			c0.062-0.613,0.159-1.237,0.361-1.821c0.17-0.52,0.476-1.008,0.757-1.473"/>
	</g>
	<g id="POLYLINE_318_">
		
			<path fill="none" stroke="#E74C3C" stroke-width="2.5" stroke-linecap="round" stroke-linejoin="round" stroke-miterlimit="10" d="
			M473.981,132.404c-0.035,1.668-0.45,3.323-1.133,4.841"/>
	</g>
	<g id="POLYLINE_319_">
		
			<path fill="none" stroke="#E74C3C" stroke-width="2.5" stroke-linecap="round" stroke-linejoin="round" stroke-miterlimit="10" d="
			M476.13,121.329c-0.108,0.192-0.254,0.381-0.343,0.582c-0.078,0.172-0.123,0.359-0.148,0.546c-0.054,0.411-0.051,0.84-0.046,1.254
			c0.029,1.659,0.182,3.641-0.044,5.285c-0.133,0.943-0.337,1.916-0.858,2.729c-0.262,0.402-0.648,0.746-1.137,0.82
			c-0.597,0.097-1.206-0.136-1.676-0.498c-0.859-0.674-1.306-1.873-1.849-2.791c-0.665-1.219-1.611-2.273-2.573-3.265
			c-1.681-1.752-3.693-3.613-4.887-5.741c-1.274-2.228-1.762-4.848-1.599-7.396c0.255-3.981,1.851-7.893,4.56-10.834
			c2.017-2.199,4.65-3.764,7.425-4.817c5.462-2.077,11.565-2.2,17.194-0.726c1.831,0.489,3.66,1.131,5.287,2.117
			c1.212,0.725,2.278,1.698,3.293,2.674"/>
	</g>
	<g id="POLYLINE_320_">
		
			<path fill="none" stroke="#E74C3C" stroke-width="2.5" stroke-linecap="round" stroke-linejoin="round" stroke-miterlimit="10" d="
			M482.688,123.372c-0.94,0.355-1.933,0.669-2.943,0.438c-0.763-0.169-1.46-0.564-2.085-1.024c-0.88-0.658-1.639-1.483-2.223-2.413
			c-0.742-1.192-1.198-2.612-1.084-4.025c0.059-0.642,0.263-1.303,0.723-1.773c0.656-0.657,1.662-0.806,2.551-0.69
			c0.773,0.102,1.489,0.422,2.049,0.97c0.539,0.493,0.969,1.196,1.598,1.583c0.283,0.17,0.622,0.236,0.949,0.206
			c0.533-0.046,1.046-0.336,1.334-0.791c0.162-0.253,0.245-0.548,0.299-0.841c0.095-0.448,0.108-1.205,0.152-1.665
			c0.067-0.833,0.213-1.722,0.771-2.379c0.379-0.448,0.883-0.773,1.395-1.051c1.367-0.737,3.069-1.211,4.391-2.033
			c0.41-0.259,0.796-0.572,1.075-0.972c0.358-0.504,0.548-1.107,0.678-1.705c0.228-1.015,0.295-2.203,0.892-3.088
			c0.682-1.018,1.877-1.679,3.101-1.72c1.346-0.043,2.501,0.822,3.403,1.739c0.969,0.999,1.812,2.133,2.568,3.299
			c1.498,2.325,2.618,4.927,3.031,7.673c0.291,1.603,0.382,3.536,1.036,5.042c0.304,0.676,0.773,1.265,1.282,1.798
			c0.513,0.547,1.212,1.174,1.585,1.825c0.136,0.235,0.242,0.493,0.275,0.764c0.062,0.492-0.147,0.985-0.468,1.351
			c-0.236,0.272-0.544,0.478-0.88,0.608c-0.305,0.132-0.754,0.222-1.014,0.427c-0.105,0.087-0.152,0.199-0.136,0.335
			c0.01,0.101,0.044,0.198,0.081,0.291c0.093,0.236,0.271,0.545,0.385,0.775c0.159,0.322,0.317,0.664,0.327,1.029
			c0.007,0.565-0.386,1.067-0.664,1.53c-0.155,0.256-0.304,0.527-0.358,0.825c-0.052,0.29-0.012,0.589,0.042,0.877
			c0.077,0.419,0.221,0.893,0.137,1.319c-0.042,0.213-0.156,0.404-0.292,0.57c-0.259,0.32-0.736,0.688-1.048,0.962
			c-0.319,0.28-0.63,0.584-0.847,0.951c-0.331,0.551-0.496,1.335-0.676,1.95c-0.137,0.46-0.308,0.923-0.596,1.312
			c-0.251,0.343-0.593,0.61-0.962,0.815c-0.763,0.42-1.631,0.619-2.49,0.725c-1.153,0.133-2.328,0.088-3.471-0.108
			c-2.525-0.428-4.802-1.747-6.783-3.325c-2.044-1.618-3.923-3.493-5.384-5.659"/>
	</g>
</g>
<g id="_x32_D_x24_AG-OUTLINE">
	<g id="POLYLINE_378_">
		
			<path fill="none" stroke="#E74C3C" stroke-width="3.25" stroke-linecap="round" stroke-linejoin="round" stroke-miterlimit="10" d="
			M223.545,149.388c0.932,1.574,1.946,3.275,3.107,4.685c1.232,1.521,2.705,2.919,4.14,4.249c1.044,0.937,5.969,5.332,6.885,6.19
			c3.029,2.807,6.568,6.457,9.929,8.803c2.17,1.523,4.557,2.792,7.091,3.587c1.098,0.336,2.238,0.587,3.389,0.621
			c0.848,0.023,1.718-0.089,2.492-0.454c1.018-0.47,1.787-1.343,2.364-2.285c0.788-1.295,1.327-2.738,1.795-4.175
			c1.444-4.611,2.204-9.504,2.827-14.288c0.901-7.297,1.334-14.912,1.329-22.265l-0.083-5.149c-0.006-1.262,0.054-2.55,0.311-3.788
			c0.256-1.256,0.721-2.488,1.209-3.671c1.174-2.855,2.944-6.144,3.223-9.243c0.409-3.674-1.42-7.131-3.527-10.009
			c-1.558-2.084-3.305-4.075-5.351-5.692c-0.87-0.659-1.829-1.313-2.915-1.532c-0.362-0.068-0.742-0.062-1.096,0.046
			c-0.391,0.116-0.741,0.342-1.045,0.61c-0.786,0.708-1.348,1.648-1.92,2.529c-1.108,1.756-2.084,3.633-2.664,5.633
			c-1.184,3.921-0.38,8.086,0.556,11.973c0.685,2.806,1.788,6.18,1.878,9.061c0.09,2.386-0.264,4.786-0.741,7.118
			c-0.827,4.201-2.631,8.827-4.119,12.855c-0.291,0.828-0.595,1.731-0.819,2.577c-0.167,0.603-0.33,1.501-0.479,2.112
			c-0.047,0.167-0.102,0.407-0.222,0.534l-0.003,0.003l-0.003,0.003l-0.003,0.003l-0.003,0.003l-0.003,0.002l-0.003,0.002
			l-0.003,0.002l-0.003,0.002l-0.003,0.002l-0.003,0.002l-0.003,0.002l-0.003,0.002l-0.003,0.002l-0.003,0.002l-0.003,0.002
			l-0.003,0.001l-0.003,0.001l-0.003,0.001l-0.003,0.001l-0.003,0.001l-0.003,0.001l-0.003,0.001l-0.003,0.001l-0.003,0.001
			l-0.003,0.001l-0.003,0.001l-0.003,0l-0.004,0l-0.004,0l-0.004,0l-0.004,0l-0.004,0l-0.004,0l-0.004,0l-0.004-0.001l-0.005-0.001
			l-0.005-0.001l-0.005-0.001l-0.005-0.001l-0.005-0.001l-0.005-0.001l-0.005-0.002l-0.005-0.002l-0.005-0.002l-0.005-0.002
			l-0.005-0.002l-0.005-0.002l-0.005-0.002l-0.005-0.003l-0.005-0.003l-0.005-0.003c-0.057-0.035-0.105-0.084-0.149-0.134
			c-0.205-0.244-0.365-0.545-0.521-0.822c-0.722-1.363-1.561-2.954-2.411-4.224c-1.527-2.324-3.253-4.553-5.254-6.491
			c-0.976-0.961-2.168-1.813-3.298-2.589c-0.606-0.43-1.227-0.879-1.714-1.445c-0.387-0.441-0.657-0.974-0.83-1.533
			c-0.332-1.01-0.492-2.68-0.667-3.737c-1.053-6.949-7.263-14.832-13.374-18.167c-1.162-0.627-2.42-1.097-3.726-1.308
			c-1.573-0.265-3.193-0.168-4.771,0.006c-1.457-2.039-3.323-3.788-5.2-5.435c0.172-0.762,0.375-1.55,0.662-2.276
			c0.352-0.907,0.819-1.778,1.323-2.609c1.702,0.33,3.475,0.486,5.191,0.17c1.592-0.293,3.151-1.051,4.176-2.331
			c0.817-0.993,1.158-2.271,1.373-3.515l0.341-2.153c0.088-0.498,0.205-1,0.392-1.471c0.186-0.491,0.461-1.006,0.587-1.517
			c0.144-0.554,0.04-1.133-0.083-1.681c-0.153-0.671-0.378-1.404-0.331-2.094c0.013-0.343,0.052-0.712,0-1.049
			c-0.034-0.242-0.116-0.477-0.225-0.695c-0.274-0.555-0.667-1.078-0.92-1.644c-0.096-0.217-0.175-0.446-0.195-0.684
			c-0.031-0.319,0.089-0.63,0.255-0.897c0.282-0.478,0.79-0.914,1.013-1.399c0.064-0.148,0.092-0.314,0.071-0.475
			c-0.025-0.202-0.117-0.39-0.224-0.561c-0.106-0.168-0.234-0.328-0.363-0.479c-0.611-0.701-1.466-1.512-2.04-2.241
			c-0.41-0.519-0.793-1.085-0.972-1.728c-0.335-1.213,0.083-2.5,0.018-3.73c-0.026-0.609-0.179-1.209-0.387-1.78
			c-0.191-0.526-0.437-1.048-0.692-1.546c-0.493-0.932-2.022-3.732-2.556-4.645c-0.505-0.833-1.098-1.647-1.908-2.207
			c0.117-0.554,0.475-2.099,0.581-2.638c0.069-0.367,0.136-0.748,0.131-1.123c-0.003-0.327-0.063-0.659-0.216-0.95
			c-0.185-0.356-0.48-0.642-0.799-0.879c-0.549-0.402-1.184-0.682-1.819-0.918c-1.758-0.634-3.629-0.959-5.487-1.114
			c-3.605-0.303-7.248,0.157-10.746,1.035c-3.472,0.869-6.913,2.11-10.174,3.58c-1.396,0.642-2.8,1.356-4.058,2.241
			c-0.882,0.623-1.715,1.346-2.358,2.219c-0.806,1.082-1.226,2.4-1.437,3.72c-0.289,1.805-0.316,3.97-0.41,5.797
			c-0.055,2.067-0.057,4.192,0.434,6.212c0.247,1.014,0.674,1.985,1.157,2.908l1.057,1.96c0.854,1.546,1.277,3.476,1.855,5.135
			c0.401,1.125,0.911,2.234,1.645,3.182c0.248,0.307,0.523,0.612,0.878,0.794c0.141,0.513,0.25,1.059,0.337,1.585
			c0.165,1.147,0.419,2.399,0.381,3.557c-0.017,0.391-0.069,0.789-0.219,1.153c-0.226,0.56-0.714,0.955-1.22,1.256
			c-0.657,0.383-1.583,0.83-2.267,1.174c-1.024,0.493-2.092,0.951-3.207,1.194c-1.19,0.05-2.369,0.315-3.481,0.738
			c-0.876,0.338-1.726,0.772-2.467,1.353c-0.358,0.282-0.684,0.611-0.938,0.99c-0.303,0.441-0.508,0.975-0.705,1.471
			c-1.942,0.257-4.754-0.123-6.723-0.224c-2.783-0.166-5.719-0.203-8.293,1.015c-1.504,0.683-2.855,1.677-4.084,2.773
			c-1.28,1.117-2.626,2.647-4.024,3.615c-0.925,0.649-1.988,1.079-3.074,1.376c-1.417,0.412-4.356,0.934-5.83,1.246
			c-1.689,0.355-3.444,0.791-5.08,1.341c-4.569,1.543-8.928,3.798-13.06,6.269c-2.478,1.471-5.917,3.863-8.322,5.489
			c-2.276,1.559-5.214,3.024-7.438,4.654c-1.037,0.772-2.029,1.653-2.732,2.748c-0.527,0.818-0.862,1.75-1.056,2.701
			c-0.31,1.522-0.302,3.124-0.26,4.672c0.509,9.374,0.529,20.663,2.546,29.799c0.862,3.982,1.96,8.834,2.436,12.841
			c0.349,2.82,0.666,5.727,0.644,8.571c-0.017,0.845-0.073,1.721-0.454,2.491c-1.012,1.928-2.124,3.788-2.973,5.84
			c-0.667,1.594-1.239,3.267-1.423,4.993c-0.166,1.568,0.051,3.167,0.552,4.659c0.617,1.848,1.619,3.555,2.697,5.17
			c0.62,0.909,1.299,1.805,2.115,2.548c0.503,0.454,1.07,0.858,1.712,1.09c0.521,0.192,1.092,0.246,1.64,0.15
			c0.897-0.153,1.712-0.611,2.436-1.147c1.381-1.04,2.503-2.398,3.478-3.816c1.958-2.902,3.334-6.208,4.085-9.624
			c0.368-1.71,0.558-3.477,0.463-5.226c-0.111-2.741-1.235-6.947-1.789-9.666c-0.635-3.148-1.237-6.487-1.579-9.674
			c-0.163-1.594-0.289-3.232-0.193-4.832c0.051-0.904,0.185-1.841,0.346-2.733c0.738-3.64,1.427-7.97,1.897-11.644
			c0.663-5.256,1.359-10.884,1.531-16.175c0.021-0.373,0.042-0.777,0.11-1.145c0.058-0.319,0.167-0.653,0.437-0.855
			c0.215-0.168,0.476-0.269,0.73-0.364c1.707-0.593,6.502-1.522,8.315-1.959c7.021-1.608,15.116-4.667,21.962-7.037
			c1.03-0.337,2.188-0.743,3.242-0.979c0.208-0.04,0.437-0.079,0.636,0.014c0.1,0.047,0.181,0.127,0.245,0.216
			c0.327,0.483,0.564,1.478,0.765,2.035c0.264,0.785,0.578,1.571,1.025,2.271c0.396,2.188,3.95,21.223,4.162,22.827l2.385,15.861
			c0.797,4.536,1.701,9.254,4.193,13.204l-0.807,1.099c-0.439,0.585-0.921,1.148-1.469,1.634c-0.647,0.6-1.971,1.438-2.71,1.958
			c-1.37,0.941-2.688,2.002-3.79,3.251c-1.665,1.889-2.947,4.103-4.043,6.361c-1.477,3.083-2.612,6.376-3.415,9.699
			c-0.717,3.025-1.185,6.144-1.132,9.258c0.053,2.931,0.585,5.867,1.589,8.623c0.633,1.696,1.404,3.379,2.452,4.862
			c0.733,1.016,1.664,1.89,2.596,2.721c0.217,0.451,0.492,0.88,0.803,1.272c-0.886,1.697-2.334,4.346-3.084,6.021
			c-0.646,1.411-1.258,2.98-1.759,4.45c-3.095,9.405-6.078,24.226-8.743,33.822c-0.771,2.759-1.622,5.603-2.724,8.247
			c-0.774,1.847-1.695,3.665-2.88,5.284c-1.179,1.637-2.687,3.021-4.317,4.199c-1.738,1.283-4.71,3.021-6.533,4.215
			c-1.622,1.056-3.239,2.227-4.751,3.434c-4.308,3.446-8.218,7.458-11.325,12.028c-2.764,3.995-5.665,9.601-8.189,13.768
			c-2.39,3.914-5.044,7.782-7.934,11.345c-0.325,0.391-1.403,1.647-1.691,2.031c-0.543-0.201-1.116-0.482-1.697-0.247
			c-0.377,0.15-0.694,0.419-0.988,0.693c-0.727,0.69-1.624,1.852-2.276,2.627c-1.334,1.621-2.904,3.262-4.384,4.755
			c-0.364-0.075-3.64-0.729-3.897-0.795c-1.889-0.417-4.189-1.139-6.124-1.085c-1.77,0.034-3.528,0.597-5.002,1.574
			c-0.954,0.639-1.793,1.492-2.289,2.537c-0.42,0.875-0.611,1.847-0.68,2.811c-0.105,1.517,0.067,3.068,0.272,4.571
			c0.525,3.461,1.646,9.529,1.846,12.933c0.123,1.735,0.097,3.534-0.002,5.271c-0.106,1.597-0.442,6.022-0.453,7.542
			c-0.036,1.804,0.009,3.714,0.107,5.516c0.141,2.499,0.397,5.294,0.706,7.777c0.166,1.267,0.364,2.601,0.674,3.841
			c0.347,1.371,0.821,2.755,1.698,3.883c0.574,0.735,1.334,1.32,2.177,1.716c0.968,0.455,2.041,0.679,3.108,0.682
			c0.74,0.001,1.492-0.118,2.166-0.433c0.52-0.24,0.983-0.599,1.352-1.037c0.634-0.753,0.992-1.696,1.271-2.629
			c1.006-3.585,1.102-8.012,1.748-11.674c0.406-2.32,1.05-4.717,2.599-6.552c1.765-2.129,4.611-3.017,6.973-4.292
			c0.845-0.463,1.713-0.976,2.302-1.757c0.514-0.68,0.658-1.581,0.507-2.409c-0.198-1.106-0.821-2.13-1.696-2.832
			c-0.668-0.535-1.478-0.87-2.306-1.069l3.281-4.358c1.84-2.437,4.702-5.195,6.747-7.477c0.73-0.832,1.457-1.704,2.031-2.652
			c0.325-0.538,0.594-1.12,0.728-1.736c0.136-0.603,0.143-1.23,0.1-1.843l-0.103-1.22c1.087-1.062,2.322-2.448,3.444-3.459
			c5.173-4.76,13.708-11.253,18.868-16.034c3.329-3.043,6.672-6.454,9.693-9.807c1.709-1.876,4.093-4.801,6.021-6.4
			c0.822-0.697,1.713-1.335,2.648-1.871c0.989-0.569,2.064-1.047,3.122-1.473c2.39-0.972,5.749-1.962,8.07-3.075
			c0.691-0.336,1.365-0.729,1.966-1.21c0.626-0.498,1.17-1.105,1.593-1.784c0.518-0.822,0.867-1.745,1.169-2.664
			c0.695-2.139,1.298-4.677,2.657-6.499c0.796-1.078,1.828-1.969,2.875-2.795c0.86-0.675,2.131-1.609,2.901-2.369
			c0.637-0.616,1.219-1.318,1.756-2.023c3.769-5.159,8.324-10.279,11.548-15.807c2.734-4.563,5.144-9.821,7.309-14.693
			c1.962-4.451,4.095-9.47,5.761-14.029c7.418,0.746,15.865,0.326,23.225,1.535c3.626,0.544,8.86,1.94,12.466,2.83
			c0.554,0.144,1.249,0.319,1.787,0.507c0.243,0.086,0.496,0.179,0.718,0.313c0.075,0.047,0.149,0.099,0.205,0.168l0.004,0.006
			l0.004,0.006l0.004,0.006l0.004,0.006l0.004,0.006l0.004,0.006l0.003,0.006l0.003,0.006l0.003,0.006l0.003,0.006l0.003,0.006
			l0.003,0.006l0.002,0.006l0.002,0.006l0.002,0.006l0.002,0.006l0.002,0.006l0.002,0.006l0.001,0.004l0.001,0.004l0.001,0.004
			l0.001,0.004l0.001,0.004l0.001,0.004l0,0.004l0,0.004l0,0.004l0,0.004l0,0.004l0,0.004l0,0.004l0,0.004l0,0.004l0,0.004l0,0.004
			l0,0.004l0,0.004l0,0.004l-0.001,0.004l-0.001,0.004l-0.001,0.004l-0.001,0.004c-0.015,0.07-0.06,0.129-0.108,0.18
			c-0.329,0.321-1.108,0.695-1.514,0.945c-3.064,1.85-5.815,4.261-8.025,7.076c-3.473,4.53-5.901,10.798-8.771,15.712
			c-2.348,4.119-5.146,8.31-7.862,12.201c-1.25,1.813-5.754,7.892-6.779,9.765l-0.667-0.064c-0.376-0.029-0.765-0.028-1.125,0.097
			c-0.278,0.093-0.524,0.266-0.734,0.467c-0.227,0.216-0.427,0.467-0.613,0.719c-0.734,1.03-1.512,2.403-2.28,3.404
			c-1.7,2.305-4.809,4.662-6.964,6.556c-0.24,0.211-0.719,0.641-0.953,0.858c-0.858-0.124-1.739-0.151-2.596-0.014
			c-0.815,0.127-1.604,0.406-2.35,0.755c-1.81,0.856-3.445,2.082-5.01,3.319c-1.447,1.164-2.912,2.382-4.154,3.766
			c-0.868,0.99-1.709,2.105-1.967,3.424c-0.138,0.724-0.055,1.475,0.159,2.176c0.164,0.543,0.403,1.07,0.664,1.572
			c0.827,1.593,2.321,3.659,3.314,5.174c1.321,1.989,2.678,4.091,3.608,6.294c0.509,1.198,0.862,2.483,1.147,3.752
			c0.404,1.856,0.831,4.139,1.503,5.895c0.488,1.324,1.167,2.583,1.935,3.765c2.703,4.082,6.268,7.573,9.981,10.735
			c2.055,1.699,4.243,3.441,6.865,4.138c1.656,0.436,3.435,0.355,5.064-0.159c1.112-0.362,2.222-0.936,2.93-1.895
			c0.299-0.41,0.491-0.895,0.574-1.394c0.222-1.418-0.249-2.839-0.796-4.131c-1.15-2.62-3.012-5.109-3.976-7.814
			c-0.632-1.7-0.839-3.532-0.798-5.337c0.048-3.222,0.924-6.884,1.574-10.043c0.349-1.83,0.645-3.755,0.181-5.591
			c-0.344-1.363-1.148-2.584-2.182-3.525c1.329-2.475,2.781-5.266,4.454-7.508c0.951-1.299,2.235-2.871,3.116-4.209
			c0.287-0.441,0.566-0.905,0.78-1.387c0.161-0.36,0.281-0.742,0.332-1.133c0.056-0.416,0.034-0.841-0.019-1.256l-0.119-0.855
			c0.261-0.276,1.941-2.256,2.228-2.587c1.053-1.217,2.223-2.396,3.437-3.451c1.885-1.69,7.248-5.715,9.309-7.33
			c6.179-4.78,12.407-11.645,18.016-17.108c4.08-4.098,10.895-9.497,15.432-13.216c1.504-1.267,3.03-2.584,4.27-4.116
			c0.73-0.902,1.361-1.896,1.818-2.964c0.426-0.989,0.698-2.049,0.844-3.115c0.466-3.583-0.247-7.292-1.828-10.528
			c-1.306-2.645-3.299-4.89-5.424-6.908c-2.047-1.908-10.276-9.147-12.369-10.98c-2.448-2.104-5.073-4.138-7.764-5.919
			c-10.154-6.697-21.659-11.331-33.401-14.391c0.504-1.404,0.872-3.391,1.198-4.862c0.149-0.709,0.307-1.467,0.35-2.189
			c0.043-0.722-0.012-1.552-0.583-2.069c0.93-1.224,1.976-2.584,2.735-3.911c0.709-1.21,1.296-2.517,1.806-3.823
			c4.165-10.916,5.41-23.631,7.748-35.028C221.031,161.032,223.063,151.818,223.545,149.388z"/>
	</g>
	<g id="POLYLINE_379_">
		
			<path fill="none" stroke="#E74C3C" stroke-width="3.25" stroke-linecap="round" stroke-linejoin="round" stroke-miterlimit="10" d="
			M757.962,312.485c4.139-0.343,8.854,0.049,13.009-0.04c5.091-0.093,10.358-0.471,15.415-1.07c3.622-0.449,7.386-1.018,10.92-1.928
			c2.575-0.66,5.137-1.576,7.583-2.618c4.077-1.861,11.075-4.627,15.241-6.369c-5.874-1.619-11.713-3.922-17.254-6.455
			c-5.432-2.526-10.815-5.389-15.701-8.866c-4.327,5.266-9.355,10.108-14.444,14.634c-4.037,3.521-8.236,7.08-12.778,9.933
			l-2.718,1.672C757.556,311.686,757.804,312.07,757.962,312.485z"/>
	</g>
	<g id="POLYLINE_380_">
		
			<path fill="none" stroke="#E74C3C" stroke-width="3.25" stroke-linecap="round" stroke-linejoin="round" stroke-miterlimit="10" d="
			M840.807,162.753c-0.189-0.648-0.506-1.257-0.911-1.796c-1.012-1.319-2.823-2.828-3.984-4.028c-2.898-2.881-5.75-5.98-8.321-9.158
			c-3.729-4.554-6.787-9.688-8.988-15.148c-0.196-0.476-0.572-1.527-0.835-1.97c-0.101-0.173-0.22-0.338-0.368-0.473
			c-0.201-0.186-0.458-0.301-0.721-0.367c-0.447-0.113-0.922-0.124-1.381-0.139c-3.193,0.03-6.733-0.314-9.912-0.674
			c-10.433-1.149-27.285-4.03-37.622-4.419c-2.321-0.023-4.703,0.115-6.905,0.904c-2.583,0.938-4.891,2.743-7.576,3.425
			c-1.236,0.332-2.534,0.426-3.81,0.425c-2.463,0.013-6.148-0.477-8.634-0.72c-2.126-0.2-4.318-0.359-6.442-0.077
			c-1.769,0.195-3.753,0.81-5.505,0.854c-0.491,0.004-0.99-0.052-1.455-0.217c-0.458-0.162-0.879-0.421-1.246-0.739
			c-0.938-0.824-1.58-2.026-1.629-3.283c-0.03-0.826,0.233-1.642,0.656-2.346c0.811-1.345,2.088-2.332,3.395-3.165
			c1.404-0.896,3.061-1.694,4.565-2.419c2.26-1.028,5.391-2.591,7.564-3.755c1.278-0.647,2.603-1.25,3.981-1.644
			c1.131-0.33,2.309-0.513,3.485-0.576c3.465-0.214,8.264,0.536,11.751,0.908c2.394,0.259,4.884,0.391,7.291,0.346
			c2.933-0.044,6.068-0.366,8.987-0.726c4.795-0.613,11.408-1.557,16.172-1.875c8.58-0.667,17.771,0.285,26.338,0.99
			c1.464,0.141,2.998,0.304,4.434,0.634c0.812,0.189,1.623,0.438,2.366,0.821c0.851,0.434,1.577,1.078,2.235,1.763
			c0.68,0.718,1.563,1.682,2.312,2.307c1.332,1.149,3.366,2.633,4.717,3.761c1.718,1.384,5.148,4.739,6.798,6.285
			c1.746,1.669,4.209,3.723,6.068,5.293c1.332,1.156,2.648,2.397,3.764,3.764c0.82,0.995,1.542,2.116,2.196,3.227
			c0.874,1.487,2.18,3.962,3.209,5.308c0.438,0.581,0.931,1.134,1.503,1.585c1.156,0.936,2.763,1.497,4.125,2.068
			c2.967,1.235,5.613,3.293,7.494,5.902c0.948,1.32,1.614,2.832,2.172,4.351l1.113,3.14c0.177,0.473,0.393,1.021,0.6,1.479
			c0.758,0.373,1.54,0.778,2.17,1.347c0.866,0.771,1.544,1.74,2.128,2.736c0.332-0.101,0.665-0.222,0.969-0.392
			c0.398-0.221,0.762-0.503,1.099-0.808c-0.101-0.283-0.114-0.591-0.09-0.888c0.022-0.272,0.076-0.548,0.14-0.814
			c0.237-0.949,0.628-2.049,0.854-3.001c0.392-1.616,0.855-3.813,1.441-5.345c0.353-0.95,0.814-1.874,1.354-2.731
			c2.289-3.58,5.853-6.403,9.905-7.709c2.159-0.695,4.456-0.958,6.719-0.906c2.045,0.053,4.103,0.356,6.055,0.973
			c1.47,0.461,2.879,1.133,4.15,2.006c1.745,1.186,3.256,2.713,4.653,4.284c1.541,1.78,3.213,3.587,4.271,5.709
			c0.453,0.914,0.765,1.907,0.866,2.924c0.202,1.989-0.235,3.998-0.943,5.851c0.276,2.318-0.17,4.662-0.81,6.887
			c-0.591,1.976-1.34,3.949-2.5,5.667c-0.399,0.573-0.856,1.126-1.43,1.533c-0.528,0.382-1.215,0.603-1.829,0.81
			c-0.264,0.095-0.533,0.2-0.757,0.373c-0.142,0.11-0.261,0.249-0.356,0.401c-0.194,0.314-0.299,0.677-0.388,1.033
			c-0.394,1.747-0.646,3.629-1.466,5.24c-0.328,0.612-0.865,1.342-1.639,1.289c-0.213-0.016-0.415-0.1-0.601-0.204
			c-0.375-0.207-0.831-0.603-1.171-0.869c-0.233-0.175-0.473-0.368-0.762-0.437c-0.496-0.114-0.858,0.34-1.132,0.685
			c-0.257,0.329-0.536,0.715-0.863,0.976c-0.261,0.21-0.567,0.361-0.872,0.496c-0.763,0.309-1.466,0.629-2.145,1.095
			c-0.949,0.615-1.992,1.528-2.935,2.155c-1.126,0.747-2.432,1.188-3.739,1.496c-0.377,0.085-0.767,0.159-1.155,0.124
			c-0.336-0.028-0.661-0.14-0.957-0.297c-0.771-0.42-1.422-1.04-2.03-1.666c-0.994-1.049-1.876-2.222-2.616-3.464
			c-0.777,0.527-1.744,0.98-2.58,1.409c0.652,1.415,1.223,2.899,1.653,4.396c2.159,1.154,4.165,2.633,5.953,4.302
			c1.612,1.516,3.088,3.218,4.256,5.101c1.395,2.235,2.247,4.774,2.803,7.337c0.236,1.022,0.494,2.613,0.811,3.607
			c0.237,0.754,0.61,1.484,1.194,2.029c0.811,0.751,1.863,1.187,2.873,1.603c1.641,0.642,3.675,1.353,5.159,2.287
			c1.194,0.725,2.297,1.618,3.232,2.657c0.771,0.848,1.418,1.813,1.97,2.816c0.452,0.79,0.993,1.968,1.559,2.669
			c0.094,0.107,0.198,0.212,0.327,0.275l0.008,0.004l0.008,0.004l0.008,0.003l0.008,0.003l0.008,0.003l0.008,0.003l0.008,0.003
			l0.008,0.002l0.008,0.002l0.008,0.002l0.008,0.002l0.008,0.002l0.008,0.001l0.008,0.001l0.008,0.001l0.008,0.001l0.008,0.001
			l0.008,0l0.008,0l0.008,0l0.008,0l0.008,0l0.007-0.001l0.008-0.001l0.008-0.001l0.007-0.001l0.007-0.001l0.007-0.001l0.007-0.002
			l0.007-0.002l0.007-0.002l0.007-0.002l0.007-0.002l0.007-0.002l0.007-0.003l0.007-0.003l0.007-0.003l0.007-0.003l0.007-0.003
			l0.007-0.004l0.007-0.004l0.007-0.004l0.007-0.004l0.007-0.004c0.202-0.128,0.324-0.347,0.438-0.551
			c0.359-0.685,0.727-1.836,1.004-2.575c0.346-0.959,0.786-1.921,1.253-2.828c0.815-1.576,1.98-3.677,2.611-5.31
			c0.965-2.415,1.693-4.992,2.312-7.515c0.46-1.914,0.883-3.935,1.201-5.876c0.202-1.269,0.369-2.585,0.36-3.871
			c-0.006-0.747-0.071-1.506-0.223-2.238c-0.131-0.642-0.338-1.279-0.566-1.893c-0.664-1.715-1.509-3.572-1.847-5.386
			c-0.623-3.262-0.354-7.574-0.382-10.901c0.021-2.816-0.437-6.156-0.444-8.972c-0.003-2.004,0.347-4.048,1.472-5.744
			c0.617-0.941,1.465-1.75,2.487-2.235c1.593-0.743,3.416-0.773,5.136-0.598c1,0.122,2.095,0.238,2.883,0.928
			c0.426,0.371,0.712,0.874,0.923,1.392c0.437,1.092,0.651,2.277,0.855,3.431c0.5,3.247,1.075,7.543,2,10.666l1.551,5.416
			c0.473,1.815,0.978,3.7,0.864,5.59c-0.066,0.974-0.35,1.923-0.698,2.83l-0.774,1.949c-1.321,3.368-1.673,7.064-2.064,10.635
			l-0.994,11.36c-0.264,2.658-0.644,5.419-1.146,8.04c-0.83,4.395-2.544,10.876-3.635,15.278c-0.678,2.548-1.622,6.275-2.385,8.782
			c-0.18,0.573-0.385,1.174-0.62,1.727c-0.346,0.813-0.784,1.606-1.401,2.245c-0.373,0.389-0.813,0.716-1.295,0.958
			c-0.702,0.353-1.478,0.541-2.254,0.644c-1.953,0.241-3.943-0.003-5.848-0.456c-1.939-0.469-3.823-1.212-5.519-2.269
			c-1.084-0.669-2.116-1.468-3.087-2.292c-1.821-1.568-4.624-4.19-6.45-5.75c-4.596-4.043-12.428-10.322-16.398-14.892
			c-1.432-1.606-2.986-3.79-4.263-5.527c-0.714-0.962-1.529-1.91-2.352-2.781l-1.828-1.891c-1.996,1.034-4.85,2.162-6.763,3.319
			c-0.585,0.356-1.151,0.758-1.647,1.231c-1.323,1.276-2.273,2.989-3.529,4.328c-2.125,2.307-4.777,4.112-7.366,5.856
			c-6.461,4.266-14.386,8.427-21.265,12.061c-1.81,0.981-3.689,2.024-5.353,3.238c-1.238,0.908-2.41,1.954-3.273,3.234
			c-0.717,1.038-1.194,2.302-1.82,3.392c-0.19,0.304-0.401,0.629-0.735,0.786c2.271,2.465,22.772,24.034,24.313,25.993
			c0.657,0.778,1.334,1.604,1.891,2.456c0.494,0.782,1.025,1.684,0.875,2.644c2.744,4.577,6.339,11.602,9.124,16.144
			c0.908,1.601,1.741,3.286,2.255,5.058c0.494,1.691,0.731,3.461,0.719,5.222c-0.024,2.419-0.516,4.907-1.82,6.976
			c-0.743,1.175-1.759,2.166-2.89,2.969c-1.721,1.219-3.703,2.042-5.714,2.649c-3.361,1.008-6.906,1.413-10.4,1.623
			c-9.71,0.38-28.988,1.618-38.532,1.314c-6.667-0.159-17.203-1.149-23.813-0.61c-4.736,0.35-9.439,1.522-14.001,2.802
			c0.087,0.307,0.129,0.632,0.091,0.95c-0.038,0.328-0.159,0.642-0.318,0.93c-0.219,0.395-0.509,0.751-0.811,1.086
			c-0.745,0.818-1.721,1.672-2.443,2.509c-0.867,0.991-1.521,2.156-2.01,3.375c-1.023,2.628-1.544,5.506-2.075,8.268
			c-0.709,4.06-1.122,8.282-0.273,12.352c0.285,1.547,0.857,3.61,0.869,5.173c0.005,0.577-0.06,1.165-0.268,1.707
			c-0.276,0.726-0.806,1.335-1.432,1.786c-0.912,0.654-2.02,1.012-3.135,1.092c-0.736,0.052-1.483-0.022-2.192-0.229
			c-0.865-0.251-1.671-0.687-2.397-1.215c-1.847-1.359-3.248-3.241-4.442-5.178c-2.21-3.645-3.725-7.703-4.978-11.764
			c-2.106-6.985-3.564-14.447-4.83-21.63c-4.342,1.488-8.688,3.236-12.718,5.441c-3.365,1.82-6.562,4.069-9.584,6.41l-11.523,9.25
			c-3.469,2.699-13.668,9.992-17.364,12.683c-4.882,3.677-9.832,7.549-13.966,12.064c-2.715,2.93-5.243,6.772-7.821,9.825
			c-0.873,1.017-1.851,1.97-2.889,2.818c-1.294,1.075-2.946,2.153-4.356,3.084c0.284,0.547,0.424,1.169,0.388,1.785
			c-0.037,0.714-0.296,1.405-0.677,2.005c-0.718,1.135-1.838,1.94-2.919,2.703c-1.508,1.026-3.638,2.419-5.02,3.55
			c-1.219,0.984-2.387,2.063-3.453,3.212c-1.099,1.192-2.126,2.484-2.926,3.899c-0.695,1.228-1.2,2.569-1.576,3.926
			c-0.939,3.497-1.518,7.399-2.877,10.763c-0.197,0.45-0.42,0.904-0.755,1.269c-0.161,0.174-0.354,0.322-0.572,0.419
			c-0.227,0.103-0.475,0.152-0.722,0.177c-0.903,0.058-1.9,0.031-2.802-0.009c-0.983-0.062-1.984-0.192-2.901-0.568
			c-0.549-0.225-1.055-0.562-1.452-1.005c-0.488-0.541-0.812-1.212-1.041-1.898c-0.578-1.814-0.684-3.752-0.746-5.643
			c-0.059-2.991,0.154-6.042,0.655-8.991c0.47-2.856,1.547-6.414,2.276-9.236c2.333-8.546,1.65-17.865,3.389-26.513
			c0.211-1.018,0.456-2.079,0.787-3.063c0.162-0.471,0.34-0.95,0.595-1.38c0.15-0.252,0.334-0.49,0.563-0.676
			c0.207-0.169,0.45-0.292,0.704-0.372c0.344-0.108,0.708-0.149,1.067-0.17c1.333-0.053,2.718,0.066,4.047,0.179
			c2.869,0.281,5.792,0.679,8.586,1.4c1.343,0.362,2.707,0.781,3.924,1.469c5.953-4.602,11.987-9.891,17.537-14.978
			c4.296-3.997,8.741-8.243,12.473-12.766c1.23-1.495,2.405-3.141,3.456-4.768c1.267-1.955,2.922-4.757,4.344-6.555
			c2.211-2.844,4.975-5.261,7.796-7.483c5.867-4.631,14.107-9.536,20.31-13.77c0.725-0.514,1.462-1.068,2.096-1.693
			c0.837-0.809,1.478-1.803,2.003-2.837c0.749-1.462,1.616-3.598,2.335-5.073c1.092-2.297,2.983-5.647,4.223-7.887
			c-0.188-0.477-0.099-1.009,0.07-1.478c0.118-0.333,0.279-0.662,0.445-0.974c0.661-1.209,1.558-2.55,2.307-3.713
			c2.973-4.498,6.403-9.354,9.712-13.607c1.867-2.38,3.883-4.826,6.061-6.926l2.667-2.538c0.82-0.799,1.62-1.659,2.289-2.589
			c1.735-2.433,2.917-5.259,4.021-8.022c1.22-3.132,2.653-7.337,4.284-10.24c1.769-3.193,4.124-6.061,6.73-8.608
			c-0.276-0.085-0.553-0.215-0.738-0.444c-0.273-0.336-0.293-0.801-0.219-1.211c0.214-1.08,0.911-1.994,1.652-2.779
			c1.356-1.401,3.004-2.542,4.612-3.635c2.668-1.724,8.799-5.714,11.514-7.483c2.075-1.294,4.239-2.541,6.518-3.437
			c1.85-0.752,3.963-1.435,5.537-2.687c1.15-0.906,2.07-2.079,2.898-3.277c1.42-2.083,3.293-5.441,4.672-7.551
			c2.225-3.474,4.704-6.924,7.248-10.171c4.236-5.408,9.067-10.709,13.903-15.592c2.513-2.509,5.304-5.194,8.018-7.481
			C836.491,165.971,838.79,164.243,840.807,162.753z"/>
	</g>
	<g id="POLYLINE_381_">
		
			<path fill="none" stroke="#E74C3C" stroke-width="3.25" stroke-linecap="round" stroke-linejoin="round" stroke-miterlimit="10" d="
			M446.55,140.463c-0.685,0.021-1.379-0.048-2.051-0.181c-0.507-0.105-1.018-0.246-1.477-0.492c-0.312-0.172-0.645-0.419-0.71-0.791
			c-0.037-0.216,0.014-0.436,0.084-0.64c0.299-0.826,0.909-1.586,0.983-2.483c0.03-0.378-0.072-0.754-0.221-1.099
			c-0.328-0.763-0.906-1.472-1.252-2.227c-0.193-0.421-0.297-0.869-0.149-1.322c0.108-0.348,0.315-0.657,0.542-0.938
			c0.464-0.591,1.395-1.374,1.938-1.902c0.793-0.76,1.56-1.625,1.902-2.689c0.105-0.35,0.156-0.747,0.003-1.09
			c-0.218-0.481-0.794-0.638-1.263-0.763c-1.347-0.342-3.115-0.385-3.926-1.69c-0.666-1.051-0.805-2.433-1.264-3.573
			c-0.216-0.547-0.52-1.035-1.025-1.357c-0.609-0.408-1.385-0.589-2.03-0.926c-0.263-0.14-0.516-0.321-0.676-0.578
			c-0.271-0.45-0.25-1.012-0.144-1.509c0.091-0.409,0.254-0.805,0.483-1.157c0.19-0.29,0.428-0.556,0.728-0.735
			c0.723-0.425,1.643-0.245,2.441-0.312c0.343-0.025,0.689-0.093,0.997-0.25c0.438-0.223,0.797-0.573,1.136-0.923l0.751-0.803
			c0.456-0.471,0.957-0.945,1.59-1.157c0.819-0.261,1.694-0.034,2.496,0.186c0.95,0.266,2.082,0.712,3.07,0.716
			c0.432,0.001,0.858-0.108,1.26-0.26c0.545-0.196,1.137-0.534,1.721-0.587c0.634-0.064,1.184,0.338,1.661,0.704
			c0.506,0.393,1.039,0.889,1.602,1.197c0.293,0.163,0.626,0.264,0.963,0.248c0.575-0.016,1.153-0.287,1.7-0.439
			c0.32-0.092,0.661-0.137,0.991-0.07c0.645,0.127,1.191,0.53,1.704,0.92c0.597-4.233,2.716-8.284,6.039-11.006
			c1.854-1.524,4.019-2.653,6.274-3.458c2.462-0.874,5.061-1.376,7.669-1.511c4.157-0.183,8.396,0.46,12.259,2.023
			c0.989,0.411,1.951,0.917,2.827,1.536c0.911,0.635,1.749,1.422,2.551,2.188c1.095,0.828,1.961,1.927,2.773,3.024
			c1.546,2.151,2.811,4.553,3.468,7.129c0.344,1.338,0.535,3.046,0.759,4.416c0.115,0.677,0.253,1.368,0.497,2.013
			c0.295,0.8,0.822,1.491,1.408,2.101c0.513,0.547,1.212,1.174,1.585,1.825c0.136,0.235,0.242,0.493,0.275,0.764
			c0.062,0.492-0.147,0.985-0.468,1.351c-0.236,0.272-0.544,0.478-0.88,0.608c-0.305,0.132-0.754,0.222-1.014,0.427
			c-0.105,0.087-0.152,0.199-0.136,0.335c0.01,0.101,0.044,0.198,0.081,0.291c0.093,0.236,0.271,0.545,0.385,0.775
			c0.159,0.322,0.317,0.664,0.327,1.029c0.007,0.565-0.386,1.067-0.664,1.53c-0.155,0.256-0.304,0.527-0.358,0.825
			c-0.052,0.29-0.012,0.589,0.042,0.877c0.077,0.419,0.221,0.893,0.137,1.319c-0.042,0.213-0.156,0.404-0.292,0.57
			c-0.259,0.32-0.736,0.688-1.048,0.962c-0.319,0.28-0.63,0.584-0.847,0.951c-0.331,0.551-0.496,1.335-0.676,1.95
			c-0.128,0.431-0.286,0.864-0.542,1.236c-0.202,0.299-0.474,0.548-0.775,0.745c-0.813,0.525-1.782,0.753-2.731,0.871
			c-1.571,0.178-3.181,0.042-4.701-0.392c-0.309,0.502-0.633,1.043-0.803,1.61c-0.321,1.063-0.386,2.196-0.378,3.301l1.325,1.387
			c3.627,1.303,7.256,3.236,10.973,4.26c2.867,0.805,6.132,1.253,8.65,2.939c1.254,0.834,2.28,1.974,3.151,3.193
			c1.341,1.886,2.363,4.011,3.282,6.129l1.984,4.763c0.676,1.577,1.479,3.127,2.438,4.552c1.752,2.666,4.245,5.385,6.359,7.79
			c1.057,1.24,2.092,2.549,2.884,3.977c0.633,1.097,1.094,2.523,1.509,3.722c0.092,0.245,0.184,0.5,0.318,0.725
			c0.036,0.058,0.077,0.116,0.128,0.162l0.005,0.005l0.005,0.004l0.005,0.004l0.005,0.004l0.005,0.004l0.005,0.004l0.005,0.004
			l0.005,0.003l0.005,0.003l0.005,0.003l0.005,0.003l0.005,0.003l0.005,0.003l0.005,0.002l0.005,0.002l0.005,0.002l0.005,0.002
			l0.005,0.002l0.005,0.002l0.005,0.001l0.005,0.001l0.005,0.001l0.005,0.001l0.005,0.001l0.005,0l0.005,0l0.005,0l0.007,0l0.007,0
			l0.007-0.001l0.007-0.001l0.007-0.001l0.007-0.002l0.007-0.002l0.007-0.002l0.007-0.002l0.007-0.003l0.007-0.003l0.007-0.003
			l0.007-0.003l0.007-0.004l0.007-0.004l0.007-0.004l0.007-0.005l0.007-0.005l0.007-0.005l0.007-0.005l0.007-0.006l0.007-0.006
			l0.007-0.006l0.007-0.006l0.007-0.007c0.087-0.085,0.152-0.194,0.211-0.3c0.255-0.486,0.428-1.035,0.599-1.556
			c0.785-2.733,2.205-7.244,3.139-9.957c0.547-1.705,1.069-3.489,1.395-5.249c0.245-1.296,0.373-2.634,0.386-3.953
			c0.047-3.658-0.609-7.586-0.061-11.226c0.504-3.435,1.779-6.731,3.192-9.885c0.575-1.252,1.154-2.615,2.264-3.491
			c0.647-0.513,1.434-0.827,2.235-1.004c0.924-0.2,1.898-0.226,2.823-0.017c0.564,0.128,1.112,0.352,1.584,0.689
			c0.487,0.347,0.887,0.805,1.215,1.302c0.866,1.335,1.309,2.903,1.722,4.426c0.494,2.107,1.295,4.598,1.423,6.753
			c0.056,0.919-0.009,1.856-0.255,2.745c-0.225,0.815-0.598,1.589-1.013,2.323c-1.393,2.393-3.265,4.683-4.414,7.214
			c-1.504,3.286-2.055,6.937-2.472,10.499l-0.883,9.009c-0.517,4.611-1.254,9.38-2.295,13.898c-0.468,2.005-0.972,4.08-1.698,6.007
			c-0.846,2.202-2.072,4.583-4.363,5.538c-1.338,0.543-2.835,0.537-4.241,0.308c-2.402-0.42-4.746-1.461-6.654-2.982
			c-1.753-1.381-3.041-3.494-4.268-5.332c-1.256-1.902-2.792-3.66-4.349-5.321c-1.475-1.551-5.56-5.697-6.88-7.261
			c-1.627-1.853-3.47-4.371-4.953-6.367c-0.408,1.363-0.961,2.719-1.553,4.012c-0.694,1.495-1.93,3.985-2.471,5.498
			c-0.446,1.204-0.796,2.467-1.001,3.735c-0.497,3.012-0.197,6.386-0.464,9.421c-0.063,0.583-0.146,1.179-0.356,1.729
			c-0.147,0.381-0.381,0.74-0.723,0.972c-0.409,0.282-0.915,0.37-1.402,0.398c-0.472,1.597-1.041,3.594-1.638,5.132
			c-0.429,1.173-1.745,3.997-2.266,5.174c-0.753,1.725-1.421,3.522-1.783,5.373c-0.486,2.408-0.566,4.902-0.444,7.351
			c0.225,0.298,0.388,0.648,0.439,1.019c0.084,0.607-0.065,1.219-0.257,1.792c-0.295,0.857-0.728,1.688-1.153,2.487
			c-0.663,1.212-1.549,2.812-2.092,4.069c-1.322,3.02-2.29,6.227-2.992,9.445c4.704,5.996,10.888,13.826,15.856,19.51
			c2.621,3.003,8.639,9.637,11.024,12.669c2.54,3.139,4.779,7.049,7.562,9.989c1.648,1.785,3.788,3.649,4.81,5.883
			c0.534,1.18,0.741,2.492,0.697,3.782c-0.04,1.375-0.362,2.741-0.762,4.053c-0.51,1.634-1.175,3.584-1.498,5.243
			c-0.222,1.109-0.343,2.25-0.334,3.381c0.077,5.074,2.012,10.747,3.165,15.67c1.142,4.632,1.817,9.512,2.283,14.259
			c0.745,7.709,1.358,17.796,3.232,25.263c1.332,5.538,3.471,10.971,5.773,16.174c0.37,0.1,0.707,0.297,1.022,0.511
			c0.345,0.237,0.688,0.521,1.004,0.797c1.106,0.979,2.526,2.402,3.651,3.338c3.695,3.119,8.088,5.782,12.983,6.295
			c3.526,0.361,7.219-0.565,10.717-0.892c1.491-0.114,3.108-0.161,4.442,0.615c0.783,0.456,1.431,1.159,1.78,1.998
			c0.23,0.554,0.327,1.183,0.169,1.77c-0.151,0.565-0.514,1.046-0.916,1.459c-0.917,0.951-4.756,3.679-5.848,4.546
			c-2.847,2.114-5.879,4.174-9.327,5.147c-3.094,0.893-6.377,0.472-9.473-0.19l-5.945-1.366c-1.26-0.262-2.571-0.488-3.853-0.589
			c-1.753-0.14-3.547-0.089-5.296,0.07c-1.888,0.16-4.74,0.638-6.636,0.849c-0.421,0.04-0.87,0.076-1.292,0.073
			c-0.587-0.004-1.186-0.075-1.729-0.31c-0.694-0.291-1.226-0.861-1.625-1.485c-0.741-1.172-1.161-2.524-1.477-3.865
			c-0.491-2.16-0.664-4.397-0.603-6.609c0.068-2.249,0.376-4.514,1.044-6.668c-0.657-1.92-2.957-15.638-3.424-17.903
			c-1.542-7.674-3.434-15.47-7.07-22.449c-1.046-2.013-3.372-6.06-4.325-8.078c-0.71-1.464-1.371-3.024-1.918-4.556
			c-1.65-4.64-2.688-9.525-3.069-14.435c-0.336-3.817,0.052-8.402,0.304-12.239c0.044-0.921,0.095-1.894,0.004-2.811
			c-0.042-0.405-0.122-0.813-0.299-1.182c-0.171-0.363-0.433-0.676-0.716-0.957c-0.512-0.501-1.126-0.98-1.684-1.431
			c-5.786-4.565-23.138-16.954-29.315-21.482c-2.336,3.48-5.001,7.543-7.671,10.732c-1.99,2.413-4.208,4.704-6.533,6.797
			c-5.336,4.83-13.756,10.973-19.096,15.788c-1.674,1.503-3.313,3.143-4.744,4.88c-0.769,0.91-2.267,2.834-3.071,3.662
			c-0.748,0.793-1.587,1.528-2.57,2.014c-0.709,0.356-1.486,0.565-2.268,0.682c-2.98,0.422-6.649-0.217-9.642-0.49
			c-3.228-0.36-6.566-0.399-9.81-0.262c-4.859,0.215-10.931,0.699-15.737,0.483c-4.941-0.174-11.397-1.28-16.332-2.023
			c-2.059-0.296-4.195-0.514-6.276-0.512c-4.988-0.001-11.721,1.123-16.715,1.436c-0.633,0.036-1.325,0.067-1.96,0.048
			c-3.831,2.28-9.37,3.376-13.646,4.605c-3.562,0.997-7.177,2.271-10.034,4.699c-2.118,1.765-4.148,4.285-5.945,6.385
			c-0.665,0.765-1.368,1.555-2.147,2.206c-0.654,0.547-1.389,1.034-2.221,1.254c-0.805,0.207-1.679,0.159-2.458-0.132
			c-0.978-0.365-1.712-1.192-2.154-2.118c-0.781-1.626-0.869-3.51-0.57-5.267c0.363-2.046,1.138-4.008,2.059-5.863
			c0.873-1.725,1.903-3.404,3.254-4.797c0.646-0.667,1.377-1.272,2.152-1.783c1.163-0.781,2.718-1.49,3.984-2.11
			c1.206-0.586,2.464-1.205,3.469-2.106c0.591-0.521,1.114-1.129,1.595-1.752c3.139-4.2,7.037-10.491,10.608-14.295
			c0.866-0.891,1.804-1.823,2.967-2.306c0.462-0.186,0.968-0.269,1.464-0.219c0.962,0.099,1.841,0.573,2.658,1.063
			c1.185,0.731,2.29,1.624,3.31,2.569c1.547,1.478,3.575,3.727,5.123,5.199c1.69-0.622,3.502-0.943,5.28-1.193
			c8.375-1.143,18.055-0.359,26.134-3.153c2.762-0.951,6.456-2.428,9.308-2.919c4.896-0.934,10.381,0.135,15.292,0.64
			c1.63,0.16,3.306,0.314,4.941,0.175c0.983-0.085,1.977-0.332,2.8-0.895c0.51-0.341,0.949-0.784,1.337-1.256
			c0.625-0.752,1.641-2.326,2.213-3.139c3.031-4.254,6.932-9.535,9.409-14.081c2.507-4.407,5.518-11.95,7.571-16.663
			c1.686-3.835,3.739-7.608,5.997-11.136c-1.596-2.402-2.816-5.065-3.577-7.847c-0.84-3.079-1.14-6.298-1.151-9.482
			c-0.001-3.385,0.343-6.829,1.014-10.146c0.486-2.368,1.143-4.727,2.081-6.958c0.881-2.084,2.04-4.069,3.527-5.78
			c1.012-1.164,2.179-2.205,3.481-3.034c1.201-0.79,2.755-1.386,3.913-2.241c1.046-0.779,1.708-1.952,2.203-3.135l0.392-0.973
			c0.235-0.558,0.543-1.16,1.124-1.418c-0.045-0.91,0.004-1.836,0.155-2.735c-0.404-0.063-0.815-0.207-1.104-0.507
			c-0.232-0.236-0.378-0.543-0.472-0.857c-0.164-0.556-0.193-1.144-0.193-1.721c0.005-0.795,0.086-1.634,0.174-2.426
			c0.419-3.648,1.218-8.192,1.07-11.848c-0.042-1.186-0.207-2.379-0.535-3.521c-0.282-1.059-0.773-2.247-0.943-3.333
			c-0.053-0.371-0.063-0.754,0.018-1.121c0.065-0.296,0.194-0.577,0.358-0.831c-1.413-3.728-2.757-7.773-3.906-11.59
			c-0.352-1.213-0.726-2.563-0.974-3.796c-0.129-0.609-0.22-1.405-0.348-2.015c-0.074-0.32-0.173-0.659-0.415-0.893
			c-0.13-0.126-0.3-0.204-0.475-0.245c-0.305-0.072-0.624-0.061-0.933-0.028c-1.533,0.205-3.03,0.83-4.47,1.373
			c-4.189,1.745-8.952,3.531-13.281,4.844c-2.822,0.856-5.931,1.826-8.814,2.422l-0.743,0.13c-0.166,0.036-0.354,0.066-0.481,0.188
			c-0.067,0.065-0.097,0.159-0.104,0.25c-0.012,0.154,0.019,0.309,0.055,0.458c0.11,0.43,0.294,0.849,0.479,1.251
			c1.029,2.114,2.357,4.116,3.785,5.981c1.283,1.659,2.773,3.198,4.307,4.626c2.501,2.295,7.37,6.616,9.69,8.957
			c0.676,0.687,1.77,1.886,2.489,2.484c0.591,0.51,1.245,0.974,1.897,1.403c1.861,1.223,4.702,2.808,6.53,4.057
			c0.441,0.305,0.897,0.631,1.296,0.99c0.39,0.348,0.739,0.749,1.001,1.202c0.367,0.628,0.588,1.336,0.778,2.035
			c0.56,2.198,0.928,4.499,0.941,6.771c-0.006,0.457-0.03,0.925-0.119,1.375c-0.051,0.248-0.123,0.499-0.255,0.717
			c-0.238,0.406-0.678,0.569-1.116,0.665c-1.764,0.315-3.972,0.645-5.75,0.814c-1.356,0.118-2.747,0.197-4.102,0.041
			c-0.829-0.1-1.69-0.306-2.337-0.863c-0.572-0.482-0.923-1.165-1.22-1.838l-0.827-1.947c-0.967-2.127-2.121-4.224-3.418-6.168
			c-0.574-0.85-1.195-1.69-1.894-2.442c-0.616-0.668-1.318-1.279-2.035-1.837c-5.968-4.593-21.177-15.572-26.58-20.423
			c-1.167-1.038-2.35-2.144-3.37-3.327c-0.969-1.146-1.91-2.418-2.231-3.912c-0.138-0.669-0.118-1.368,0.036-2.033
			c0.209-0.911,0.644-1.758,1.143-2.542c1.242-1.925,2.871-3.598,4.535-5.162c1.991-1.834,4.141-3.632,6.344-5.206
			c2.074-1.474,4.301-2.781,6.649-3.768c3.135-1.352,7.212-2.192,10.525-3.059c2.212-0.575,4.441-1.276,6.401-2.476
			c1.731-1.03,3.618-2.543,5.267-3.707C442.484,142.896,444.52,141.587,446.55,140.463z"/>
	</g>
</g>
</svg>
